<svg width="1920" height="1080" viewBox="0 0 1920 1080" fill="none" xmlns="http://www.w3.org/2000/svg">
<g clip-path="url(#clip0)">
<rect width="1920" height="1080" fill="white"/>
<path d="M262.5 135.5C306.5 135.5 343 146.833 372 169.5C401 192.167 420.167 223 429.5 262H355.5C347.833 243 335.833 228 319.5 217C303.5 206 284.167 200.5 261.5 200.5C242.833 200.5 226 205.167 211 214.5C196 223.833 184.333 237.167 176 254.5C167.667 271.833 163.5 292.167 163.5 315.5C163.5 338.5 167.667 358.667 176 376C184.333 393.333 196 406.667 211 416C226 425.333 242.833 430 261.5 430C284.167 430 303.5 424.5 319.5 413.5C335.833 402.5 347.833 387.5 355.5 368.5H429.5C420.167 407.5 401 438.333 372 461C343 483.667 306.5 495 262.5 495C228.833 495 199 487.5 173 472.5C147.333 457.167 127.333 435.833 113 408.5C99 381.167 92 350.167 92 315.5C92 280.5 99 249.333 113 222C127.333 194.667 147.333 173.5 173 158.5C198.667 143.167 228.5 135.5 262.5 135.5ZM610.395 211.5C637.395 211.5 661.561 217.167 682.895 228.5C704.561 239.833 721.561 256.333 733.895 278C746.228 299.333 752.395 324.5 752.395 353.5C752.395 382.5 746.228 407.667 733.895 429C721.561 450.333 704.561 466.833 682.895 478.5C661.561 489.833 637.395 495.5 610.395 495.5C583.395 495.5 559.061 489.833 537.395 478.5C516.061 466.833 499.228 450.333 486.895 429C474.561 407.667 468.395 382.5 468.395 353.5C468.395 324.5 474.561 299.333 486.895 278C499.228 256.333 516.061 239.833 537.395 228.5C559.061 217.167 583.395 211.5 610.395 211.5ZM610.395 272.5C590.728 272.5 574.061 279.5 560.395 293.5C546.728 307.167 539.895 327.167 539.895 353.5C539.895 379.833 546.728 400 560.395 414C574.061 427.667 590.728 434.5 610.395 434.5C630.061 434.5 646.728 427.667 660.395 414C674.061 400 680.895 379.833 680.895 353.5C680.895 327.167 674.061 307.167 660.395 293.5C646.728 279.5 630.061 272.5 610.395 272.5ZM872.719 122V492H802.219V122H872.719ZM1064.5 211.5C1091.5 211.5 1115.66 217.167 1137 228.5C1158.66 239.833 1175.66 256.333 1188 278C1200.33 299.333 1206.5 324.5 1206.5 353.5C1206.5 382.5 1200.33 407.667 1188 429C1175.66 450.333 1158.66 466.833 1137 478.5C1115.66 489.833 1091.5 495.5 1064.5 495.5C1037.5 495.5 1013.16 489.833 991.496 478.5C970.163 466.833 953.329 450.333 940.996 429C928.663 407.667 922.496 382.5 922.496 353.5C922.496 324.5 928.663 299.333 940.996 278C953.329 256.333 970.163 239.833 991.496 228.5C1013.16 217.167 1037.5 211.5 1064.5 211.5ZM1064.5 272.5C1044.83 272.5 1028.16 279.5 1014.5 293.5C1000.83 307.167 993.996 327.167 993.996 353.5C993.996 379.833 1000.83 400 1014.5 414C1028.16 427.667 1044.83 434.5 1064.5 434.5C1084.16 434.5 1100.83 427.667 1114.5 414C1128.16 400 1135 379.833 1135 353.5C1135 327.167 1128.16 307.167 1114.5 293.5C1100.83 279.5 1084.16 272.5 1064.5 272.5ZM1521.32 215V492H1450.82V436C1443.49 454.667 1431.32 469.333 1414.32 480C1397.65 490.333 1378.32 495.5 1356.32 495.5C1324.32 495.5 1298.82 485 1279.82 464C1260.82 443 1251.32 413.667 1251.32 376V215H1321.32V368C1321.32 390 1326.99 407.167 1338.32 419.5C1349.65 431.5 1364.99 437.5 1384.32 437.5C1404.65 437.5 1420.82 431 1432.82 418C1444.82 405 1450.82 386.333 1450.82 362V215H1521.32ZM1655.92 268C1666.26 250.333 1679.92 236.5 1696.92 226.5C1713.92 216.167 1732.92 211 1753.92 211V286.5H1733.42C1681.76 286.5 1655.92 310.5 1655.92 358.5V492H1585.42V215H1655.92V268ZM1888.44 211.5C1922.11 211.5 1949.11 220 1969.44 237C1989.77 254 2002.44 276.667 2007.44 305H1941.44C1938.77 291.667 1932.77 281 1923.44 273C1914.11 265 1901.94 261 1886.94 261C1874.94 261 1865.61 263.833 1858.94 269.5C1852.27 275.167 1848.94 282.833 1848.94 292.5C1848.94 300.167 1851.61 306.333 1856.94 311C1862.27 315.667 1868.94 319.333 1876.94 322C1884.94 324.667 1896.44 327.833 1911.44 331.5C1932.44 336.167 1949.44 341.167 1962.44 346.5C1975.77 351.5 1987.11 359.667 1996.44 371C2006.11 382 2010.94 397 2010.94 416C2010.94 439.667 2001.61 458.833 1982.94 473.5C1964.61 488.167 1939.77 495.5 1908.44 495.5C1872.44 495.5 1843.61 487.5 1821.94 471.5C1800.27 455.167 1787.11 432 1782.44 402H1849.94C1851.61 415.667 1857.61 426.5 1867.94 434.5C1878.27 442.167 1891.77 446 1908.44 446C1920.44 446 1929.61 443.167 1935.94 437.5C1942.27 431.5 1945.44 423.833 1945.44 414.5C1945.44 406.5 1942.61 400 1936.94 395C1931.61 390 1924.77 386.167 1916.44 383.5C1908.44 380.833 1896.94 377.667 1881.94 374C1861.27 369.333 1844.44 364.667 1831.44 360C1818.77 355 1807.77 347.167 1798.44 336.5C1789.44 325.833 1784.94 311.167 1784.94 292.5C1784.94 268.5 1794.11 249 1812.44 234C1830.77 219 1856.11 211.5 1888.44 211.5Z" fill="#50D093" fill-opacity="0.25"/>
<path d="M273.282 298.776C277.506 298.776 281.01 299.864 283.794 302.04C286.578 304.216 288.418 307.176 289.314 310.92H282.21C281.474 309.096 280.322 307.656 278.754 306.6C277.218 305.544 275.362 305.016 273.186 305.016C271.394 305.016 269.778 305.464 268.338 306.36C266.898 307.256 265.778 308.536 264.978 310.2C264.178 311.864 263.778 313.816 263.778 316.056C263.778 318.264 264.178 320.2 264.978 321.864C265.778 323.528 266.898 324.808 268.338 325.704C269.778 326.6 271.394 327.048 273.186 327.048C275.362 327.048 277.218 326.52 278.754 325.464C280.322 324.408 281.474 322.968 282.21 321.144H289.314C288.418 324.888 286.578 327.848 283.794 330.024C281.01 332.2 277.506 333.288 273.282 333.288C270.05 333.288 267.186 332.568 264.69 331.128C262.226 329.656 260.306 327.608 258.93 324.984C257.586 322.36 256.914 319.384 256.914 316.056C256.914 312.696 257.586 309.704 258.93 307.08C260.306 304.456 262.226 302.424 264.69 300.984C267.154 299.512 270.018 298.776 273.282 298.776ZM306.68 306.072C309.272 306.072 311.592 306.616 313.64 307.704C315.72 308.792 317.352 310.376 318.536 312.456C319.72 314.504 320.312 316.92 320.312 319.704C320.312 322.488 319.72 324.904 318.536 326.952C317.352 329 315.72 330.584 313.64 331.704C311.592 332.792 309.272 333.336 306.68 333.336C304.088 333.336 301.752 332.792 299.672 331.704C297.624 330.584 296.008 329 294.824 326.952C293.64 324.904 293.048 322.488 293.048 319.704C293.048 316.92 293.64 314.504 294.824 312.456C296.008 310.376 297.624 308.792 299.672 307.704C301.752 306.616 304.088 306.072 306.68 306.072ZM306.68 311.928C304.792 311.928 303.192 312.6 301.88 313.944C300.568 315.256 299.912 317.176 299.912 319.704C299.912 322.232 300.568 324.168 301.88 325.512C303.192 326.824 304.792 327.48 306.68 327.48C308.568 327.48 310.168 326.824 311.48 325.512C312.792 324.168 313.448 322.232 313.448 319.704C313.448 317.176 312.792 315.256 311.48 313.944C310.168 312.6 308.568 311.928 306.68 311.928ZM331.863 297.48V333H325.095V297.48H331.863ZM350.274 306.072C352.866 306.072 355.186 306.616 357.234 307.704C359.314 308.792 360.946 310.376 362.13 312.456C363.314 314.504 363.906 316.92 363.906 319.704C363.906 322.488 363.314 324.904 362.13 326.952C360.946 329 359.314 330.584 357.234 331.704C355.186 332.792 352.866 333.336 350.274 333.336C347.682 333.336 345.346 332.792 343.266 331.704C341.218 330.584 339.602 329 338.418 326.952C337.234 324.904 336.642 322.488 336.642 319.704C336.642 316.92 337.234 314.504 338.418 312.456C339.602 310.376 341.218 308.792 343.266 307.704C345.346 306.616 347.682 306.072 350.274 306.072ZM350.274 311.928C348.386 311.928 346.786 312.6 345.474 313.944C344.162 315.256 343.506 317.176 343.506 319.704C343.506 322.232 344.162 324.168 345.474 325.512C346.786 326.824 348.386 327.48 350.274 327.48C352.162 327.48 353.762 326.824 355.074 325.512C356.386 324.168 357.042 322.232 357.042 319.704C357.042 317.176 356.386 315.256 355.074 313.944C353.762 312.6 352.162 311.928 350.274 311.928ZM394.129 306.408V333H387.361V327.624C386.657 329.416 385.489 330.824 383.857 331.848C382.257 332.84 380.401 333.336 378.289 333.336C375.217 333.336 372.769 332.328 370.945 330.312C369.121 328.296 368.209 325.48 368.209 321.864V306.408H374.929V321.096C374.929 323.208 375.473 324.856 376.561 326.04C377.649 327.192 379.121 327.768 380.977 327.768C382.929 327.768 384.481 327.144 385.633 325.896C386.785 324.648 387.361 322.856 387.361 320.52V306.408H394.129ZM407.051 311.496C408.043 309.8 409.355 308.472 410.987 307.512C412.619 306.52 414.443 306.024 416.459 306.024V313.272H414.491C409.531 313.272 407.051 315.576 407.051 320.184V333H400.283V306.408H407.051V311.496ZM429.373 306.072C432.605 306.072 435.197 306.888 437.149 308.52C439.101 310.152 440.317 312.328 440.797 315.048H434.461C434.205 313.768 433.629 312.744 432.733 311.976C431.837 311.208 430.669 310.824 429.229 310.824C428.077 310.824 427.181 311.096 426.541 311.64C425.901 312.184 425.581 312.92 425.581 313.848C425.581 314.584 425.837 315.176 426.349 315.624C426.861 316.072 427.501 316.424 428.269 316.68C429.037 316.936 430.141 317.24 431.581 317.592C433.597 318.04 435.229 318.52 436.477 319.032C437.757 319.512 438.845 320.296 439.741 321.384C440.669 322.44 441.133 323.88 441.133 325.704C441.133 327.976 440.237 329.816 438.445 331.224C436.685 332.632 434.301 333.336 431.293 333.336C427.837 333.336 425.069 332.568 422.989 331.032C420.909 329.464 419.645 327.24 419.197 324.36H425.677C425.837 325.672 426.413 326.712 427.405 327.48C428.397 328.216 429.693 328.584 431.293 328.584C432.445 328.584 433.325 328.312 433.933 327.768C434.541 327.192 434.845 326.456 434.845 325.56C434.845 324.792 434.573 324.168 434.029 323.688C433.517 323.208 432.861 322.84 432.061 322.584C431.293 322.328 430.189 322.024 428.749 321.672C426.765 321.224 425.149 320.776 423.901 320.328C422.685 319.848 421.629 319.096 420.733 318.072C419.869 317.048 419.437 315.64 419.437 313.848C419.437 311.544 420.317 309.672 422.077 308.232C423.837 306.792 426.269 306.072 429.373 306.072Z" fill="#50D093"/>
<path d="M301 689C301 677.954 309.954 669 321 669H555V898H321C309.954 898 301 889.046 301 878V689Z" fill="#50D093"/>
<rect x="1063" y="669" width="254" height="229" fill="#C70039"/>
<path d="M1317 669H1551C1562.05 669 1571 677.954 1571 689V878C1571 889.046 1562.05 898 1551 898H1317V669Z" fill="#F6F7F9"/>
<path d="M1364.86 722.351H1354.32L1352.22 728H1349.76L1358.29 705.373H1360.89L1369.43 728H1366.93L1364.86 722.351ZM1364.17 720.512L1359.61 708.033L1354.98 720.512H1364.17ZM1380.77 725.964V728H1378.64C1376.91 728 1375.62 727.595 1374.76 726.785C1373.91 725.953 1373.48 724.563 1373.48 722.614V712.072H1370.76V710.069H1373.48V705.537H1375.82V710.069H1380.74V712.072H1375.82V722.647C1375.82 723.917 1376.05 724.793 1376.51 725.274C1376.97 725.734 1377.78 725.964 1378.94 725.964H1380.77ZM1393.53 709.741C1395.61 709.741 1397.29 710.409 1398.58 711.744C1399.9 713.058 1400.55 714.995 1400.55 717.557V728H1398.29V717.721C1398.29 715.772 1397.8 714.284 1396.81 713.255C1395.82 712.204 1394.48 711.678 1392.77 711.678C1390.98 711.678 1389.54 712.259 1388.47 713.419C1387.42 714.557 1386.89 716.243 1386.89 718.476V728H1384.56V703.698H1386.89V714.47C1387.35 712.937 1388.18 711.766 1389.39 710.956C1390.59 710.146 1391.97 709.741 1393.53 709.741ZM1413.22 726.325C1414.84 726.325 1416.2 725.92 1417.29 725.11C1418.39 724.3 1419.05 723.205 1419.27 721.826H1421.7C1421.37 723.731 1420.46 725.274 1418.97 726.457C1417.48 727.639 1415.6 728.23 1413.32 728.23C1411.61 728.23 1410.09 727.869 1408.76 727.146C1407.44 726.402 1406.41 725.34 1405.67 723.961C1404.92 722.559 1404.55 720.917 1404.55 719.035C1404.55 717.152 1404.92 715.521 1405.67 714.141C1406.41 712.74 1407.44 711.678 1408.76 710.956C1410.09 710.212 1411.61 709.839 1413.32 709.839C1415.07 709.839 1416.58 710.212 1417.85 710.956C1419.14 711.678 1420.12 712.653 1420.78 713.879C1421.45 715.105 1421.79 716.44 1421.79 717.885C1421.79 718.498 1421.75 719.057 1421.66 719.56H1406.82C1406.84 721.071 1407.15 722.341 1407.74 723.37C1408.35 724.377 1409.14 725.121 1410.1 725.603C1411.07 726.084 1412.11 726.325 1413.22 726.325ZM1413.32 711.711C1412.16 711.711 1411.1 711.952 1410.14 712.434C1409.17 712.915 1408.38 713.66 1407.77 714.667C1407.18 715.652 1406.86 716.889 1406.82 718.378H1419.49C1419.58 716.911 1419.34 715.674 1418.77 714.667C1418.2 713.66 1417.44 712.915 1416.47 712.434C1415.51 711.952 1414.46 711.711 1413.32 711.711ZM1434.9 709.741C1436.98 709.741 1438.66 710.409 1439.95 711.744C1441.27 713.058 1441.92 714.995 1441.92 717.557V728H1439.66V717.721C1439.66 715.772 1439.17 714.284 1438.18 713.255C1437.2 712.204 1435.85 711.678 1434.14 711.678C1432.35 711.678 1430.91 712.259 1429.84 713.419C1428.79 714.557 1428.26 716.243 1428.26 718.476V728H1425.93V710.069H1428.26V714.47C1428.72 712.937 1429.55 711.766 1430.76 710.956C1431.96 710.146 1433.34 709.741 1434.9 709.741ZM1452.2 709.839C1454.14 709.839 1455.71 710.354 1456.89 711.383C1458.07 712.412 1458.8 713.802 1459.06 715.554H1456.86C1456.73 714.393 1456.25 713.441 1455.41 712.696C1454.6 711.93 1453.51 711.547 1452.13 711.547C1450.95 711.547 1450.02 711.843 1449.34 712.434C1448.68 713.003 1448.35 713.769 1448.35 714.733C1448.35 715.455 1448.56 716.035 1448.98 716.473C1449.42 716.911 1449.95 717.25 1450.59 717.491C1451.22 717.71 1452.08 717.94 1453.15 718.181C1454.46 718.487 1455.51 718.805 1456.3 719.133C1457.11 719.44 1457.8 719.932 1458.37 720.611C1458.94 721.29 1459.22 722.209 1459.22 723.37C1459.22 724.793 1458.69 725.964 1457.61 726.883C1456.56 727.781 1455.16 728.23 1453.41 728.23C1451.35 728.23 1449.67 727.726 1448.35 726.719C1447.04 725.69 1446.26 724.289 1446.02 722.516H1448.26C1448.39 723.698 1448.9 724.661 1449.8 725.406C1450.7 726.15 1451.91 726.522 1453.44 726.522C1454.58 726.522 1455.47 726.227 1456.1 725.636C1456.74 725.044 1457.06 724.278 1457.06 723.337C1457.06 722.57 1456.84 721.957 1456.4 721.498C1455.96 721.038 1455.41 720.699 1454.76 720.48C1454.12 720.239 1453.25 719.987 1452.13 719.724C1450.84 719.418 1449.8 719.111 1449.01 718.805C1448.24 718.498 1447.59 718.028 1447.04 717.393C1446.49 716.736 1446.22 715.849 1446.22 714.733C1446.22 713.266 1446.76 712.083 1447.83 711.186C1448.9 710.288 1450.36 709.839 1452.2 709.839ZM1482.4 704.651C1485.02 704.651 1487.25 705.307 1489.06 706.621C1490.88 707.935 1492.13 709.719 1492.81 711.974H1490.41C1489.82 710.42 1488.81 709.161 1487.39 708.197C1485.99 707.234 1484.32 706.752 1482.4 706.752C1480.73 706.752 1479.22 707.146 1477.86 707.935C1476.53 708.723 1475.48 709.85 1474.71 711.317C1473.95 712.784 1473.56 714.492 1473.56 716.44C1473.56 718.433 1473.95 720.162 1474.71 721.629C1475.5 723.096 1476.57 724.223 1477.93 725.012C1479.31 725.8 1480.87 726.194 1482.63 726.194C1484.18 726.194 1485.6 725.854 1486.9 725.176C1488.19 724.475 1489.23 723.468 1490.01 722.154C1490.82 720.841 1491.3 719.297 1491.43 717.524H1481.8V715.783H1493.43V717.82C1493.28 719.79 1492.72 721.563 1491.76 723.14C1490.81 724.716 1489.53 725.964 1487.91 726.883C1486.31 727.781 1484.49 728.23 1482.43 728.23C1480.24 728.23 1478.29 727.737 1476.58 726.752C1474.88 725.745 1473.55 724.344 1472.61 722.549C1471.67 720.753 1471.2 718.717 1471.2 716.44C1471.2 714.163 1471.67 712.127 1472.61 710.332C1473.55 708.537 1474.86 707.146 1476.55 706.161C1478.26 705.154 1480.21 704.651 1482.4 704.651ZM1499.97 713.78C1500.5 712.488 1501.34 711.492 1502.5 710.792C1503.66 710.091 1505.07 709.741 1506.74 709.741V712.237H1505.98C1504.25 712.237 1502.82 712.707 1501.68 713.649C1500.54 714.568 1499.97 716.079 1499.97 718.181V728H1497.64V710.069H1499.97V713.78ZM1517.61 726.325C1519.23 726.325 1520.59 725.92 1521.68 725.11C1522.78 724.3 1523.44 723.205 1523.65 721.826H1526.08C1525.76 723.731 1524.85 725.274 1523.36 726.457C1521.87 727.639 1519.99 728.23 1517.71 728.23C1516 728.23 1514.48 727.869 1513.15 727.146C1511.83 726.402 1510.8 725.34 1510.06 723.961C1509.31 722.559 1508.94 720.917 1508.94 719.035C1508.94 717.152 1509.31 715.521 1510.06 714.141C1510.8 712.74 1511.83 711.678 1513.15 710.956C1514.48 710.212 1516 709.839 1517.71 709.839C1519.46 709.839 1520.97 710.212 1522.24 710.956C1523.53 711.678 1524.51 712.653 1525.17 713.879C1525.84 715.105 1526.18 716.44 1526.18 717.885C1526.18 718.498 1526.14 719.057 1526.05 719.56H1511.21C1511.23 721.071 1511.54 722.341 1512.13 723.37C1512.74 724.377 1513.53 725.121 1514.49 725.603C1515.46 726.084 1516.5 726.325 1517.61 726.325ZM1517.71 711.711C1516.55 711.711 1515.49 711.952 1514.53 712.434C1513.56 712.915 1512.77 713.66 1512.16 714.667C1511.57 715.652 1511.25 716.889 1511.21 718.378H1523.88C1523.97 716.911 1523.73 715.674 1523.16 714.667C1522.59 713.66 1521.83 712.915 1520.86 712.434C1519.9 711.952 1518.85 711.711 1517.71 711.711ZM1530.81 710.069L1537.05 725.012L1542.8 710.069H1545.36L1534.82 736.473H1532.19L1535.81 727.803L1528.25 710.069H1530.81Z" fill="#808F81" fill-opacity="0.8"/>
<rect x="809" y="669" width="254" height="229" fill="#FFCD1A"/>
<rect x="555" y="669" width="254" height="229" fill="#AAE0C6"/>
<path d="M1394.61 849.091L1393.39 854.772H1398.12V856.874H1392.93L1391.42 864H1389.22L1390.73 856.874H1383.41L1381.9 864H1379.73L1381.24 856.874H1376.08V854.772H1381.7L1382.91 849.091H1377.86V846.989H1383.37L1384.92 839.698H1387.09L1385.54 846.989H1392.87L1394.41 839.698H1396.61L1395.07 846.989H1399.89V849.091H1394.61ZM1392.41 849.091H1385.08L1383.87 854.772H1391.19L1392.41 849.091ZM1416.05 840.848V842.72H1405.8V851.554H1414.67V853.36H1405.8V864H1403.47V840.848H1416.05ZM1432.7 846.956C1432.51 845.467 1431.99 844.318 1431.16 843.508C1430.33 842.676 1429.18 842.26 1427.71 842.26C1425.7 842.26 1424.15 843.026 1423.08 844.559C1422.03 846.091 1421.51 848.532 1421.51 851.882C1421.51 852.517 1421.52 852.999 1421.54 853.327C1421.84 851.882 1422.62 850.743 1423.87 849.912C1425.12 849.058 1426.6 848.631 1428.3 848.631C1430.65 848.631 1432.47 849.331 1433.79 850.733C1435.1 852.112 1435.76 854.038 1435.76 856.512C1435.76 857.936 1435.48 859.227 1434.94 860.388C1434.39 861.548 1433.54 862.478 1432.38 863.179C1431.22 863.88 1429.77 864.23 1428.04 864.23C1424.73 864.23 1422.47 863.201 1421.24 861.143C1420.04 859.063 1419.44 856.25 1419.44 852.703C1419.44 848.653 1420.09 845.588 1421.41 843.508C1422.72 841.406 1424.87 840.355 1427.84 840.355C1429.97 840.355 1431.62 840.968 1432.8 842.194C1433.98 843.398 1434.69 844.986 1434.9 846.956H1432.7ZM1421.8 855.987C1421.8 857.082 1422.02 858.111 1422.46 859.074C1422.9 860.015 1423.57 860.782 1424.49 861.373C1425.41 861.942 1426.57 862.227 1427.97 862.227C1429.66 862.227 1431.01 861.723 1432.01 860.716C1433.04 859.687 1433.56 858.275 1433.56 856.48C1433.56 854.531 1433.04 853.042 1432.01 852.013C1431.01 850.984 1429.62 850.47 1427.84 850.47C1426.84 850.47 1425.87 850.678 1424.95 851.094C1424.03 851.51 1423.28 852.134 1422.69 852.966C1422.1 853.776 1421.8 854.783 1421.8 855.987ZM1452.68 840.848V842.72H1442.43V851.554H1451.3V853.36H1442.43V864H1440.1V840.848H1452.68ZM1469.39 842.555L1460.49 864H1458.06L1467.06 842.785H1454.32V840.782H1469.39V842.555ZM1485.55 840.848V842.72H1475.3V851.554H1484.17V853.36H1475.3V864H1472.97V840.848H1485.55ZM1491.53 857.629C1491.75 859.14 1492.27 860.311 1493.1 861.143C1493.94 861.953 1495.09 862.358 1496.55 862.358C1498.61 862.358 1500.15 861.592 1501.18 860.059C1502.23 858.505 1502.76 856.031 1502.76 852.637C1502.76 852.046 1502.75 851.597 1502.73 851.291C1502.42 852.714 1501.63 853.852 1500.36 854.706C1499.11 855.56 1497.64 855.987 1495.93 855.987C1493.61 855.987 1491.79 855.286 1490.48 853.885C1489.16 852.484 1488.51 850.546 1488.51 848.072C1488.51 846.649 1488.78 845.358 1489.33 844.197C1489.87 843.037 1490.72 842.117 1491.86 841.439C1493.02 840.738 1494.46 840.388 1496.19 840.388C1499.5 840.388 1501.76 841.406 1502.99 843.442C1504.21 845.478 1504.83 848.27 1504.83 851.816C1504.83 855.845 1504.18 858.932 1502.89 861.077C1501.62 863.201 1499.51 864.263 1496.55 864.263C1494.41 864.263 1492.72 863.661 1491.49 862.457C1490.27 861.23 1489.56 859.621 1489.36 857.629H1491.53ZM1502.43 848.631C1502.43 846.901 1501.92 845.434 1500.89 844.23C1499.86 843.004 1498.31 842.391 1496.26 842.391C1494.57 842.391 1493.21 842.895 1492.18 843.902C1491.18 844.909 1490.67 846.31 1490.67 848.105C1490.67 850.054 1491.18 851.554 1492.18 852.604C1493.21 853.633 1494.61 854.148 1496.39 854.148C1497.4 854.148 1498.36 853.951 1499.28 853.557C1500.22 853.141 1500.97 852.517 1501.54 851.685C1502.14 850.853 1502.43 849.835 1502.43 848.631Z" fill="#808F81" fill-opacity="0.8"/>
<path d="M1134.61 849.091L1133.39 854.772H1138.12V856.874H1132.93L1131.42 864H1129.22L1130.73 856.874H1123.41L1121.9 864H1119.73L1121.24 856.874H1116.08V854.772H1121.7L1122.91 849.091H1117.86V846.989H1123.37L1124.92 839.698H1127.09L1125.54 846.989H1132.87L1134.41 839.698H1136.61L1135.07 846.989H1139.89V849.091H1134.61ZM1132.41 849.091H1125.08L1123.87 854.772H1131.19L1132.41 849.091ZM1153.65 840.618C1156.43 840.618 1158.73 841.296 1160.55 842.654C1162.37 843.989 1163.65 845.839 1164.39 848.204H1161.96C1161.35 846.54 1160.33 845.215 1158.91 844.23C1157.48 843.245 1155.72 842.752 1153.62 842.752C1152.02 842.752 1150.57 843.146 1149.25 843.935C1147.96 844.723 1146.94 845.85 1146.2 847.317C1145.45 848.784 1145.08 850.492 1145.08 852.44C1145.08 854.389 1145.45 856.096 1146.2 857.563C1146.94 859.008 1147.96 860.125 1149.25 860.913C1150.57 861.701 1152.02 862.095 1153.62 862.095C1155.72 862.095 1157.48 861.603 1158.91 860.617C1160.33 859.632 1161.35 858.308 1161.96 856.644H1164.39C1163.65 859.008 1162.37 860.869 1160.55 862.227C1158.73 863.562 1156.43 864.23 1153.65 864.23C1151.53 864.23 1149.64 863.726 1147.97 862.719C1146.31 861.712 1145.02 860.322 1144.1 858.549C1143.18 856.753 1142.72 854.717 1142.72 852.44C1142.72 850.141 1143.18 848.094 1144.1 846.299C1145.02 844.504 1146.31 843.114 1147.97 842.128C1149.64 841.121 1151.53 840.618 1153.65 840.618ZM1181.59 842.555L1172.69 864H1170.26L1179.26 842.785H1166.52V840.782H1181.59V842.555ZM1184.67 852.309C1184.67 856.053 1185.25 858.964 1186.41 861.044C1187.59 863.102 1189.67 864.131 1192.65 864.131C1195.61 864.131 1197.68 863.102 1198.86 861.044C1200.04 858.964 1200.63 856.053 1200.63 852.309C1200.63 848.587 1200.04 845.697 1198.86 843.639C1197.68 841.581 1195.61 840.552 1192.65 840.552C1189.67 840.552 1187.59 841.581 1186.41 843.639C1185.25 845.697 1184.67 848.587 1184.67 852.309ZM1198.33 852.309C1198.33 854.345 1198.18 856.064 1197.87 857.465C1197.59 858.844 1197.03 859.939 1196.2 860.749C1195.37 861.559 1194.18 861.964 1192.65 861.964C1191.1 861.964 1189.9 861.559 1189.07 860.749C1188.24 859.939 1187.67 858.844 1187.36 857.465C1187.08 856.064 1186.94 854.345 1186.94 852.309C1186.94 850.295 1187.08 848.598 1187.36 847.219C1187.67 845.839 1188.24 844.745 1189.07 843.935C1189.9 843.125 1191.1 842.72 1192.65 842.72C1194.18 842.72 1195.37 843.125 1196.2 843.935C1197.03 844.745 1197.59 845.839 1197.87 847.219C1198.18 848.598 1198.33 850.295 1198.33 852.309ZM1204.62 852.309C1204.62 856.053 1205.2 858.964 1206.36 861.044C1207.54 863.102 1209.62 864.131 1212.6 864.131C1215.56 864.131 1217.62 863.102 1218.81 861.044C1219.99 858.964 1220.58 856.053 1220.58 852.309C1220.58 848.587 1219.99 845.697 1218.81 843.639C1217.62 841.581 1215.56 840.552 1212.6 840.552C1209.62 840.552 1207.54 841.581 1206.36 843.639C1205.2 845.697 1204.62 848.587 1204.62 852.309ZM1218.28 852.309C1218.28 854.345 1218.13 856.064 1217.82 857.465C1217.54 858.844 1216.98 859.939 1216.15 860.749C1215.31 861.559 1214.13 861.964 1212.6 861.964C1211.05 861.964 1209.85 861.559 1209.02 860.749C1208.19 859.939 1207.62 858.844 1207.31 857.465C1207.03 856.064 1206.89 854.345 1206.89 852.309C1206.89 850.295 1207.03 848.598 1207.31 847.219C1207.62 845.839 1208.19 844.745 1209.02 843.935C1209.85 843.125 1211.05 842.72 1212.6 842.72C1214.13 842.72 1215.31 843.125 1216.15 843.935C1216.98 844.745 1217.54 845.839 1217.82 847.219C1218.13 848.598 1218.28 850.295 1218.28 852.309ZM1232.38 840.355C1233.85 840.355 1235.1 840.618 1236.13 841.143C1237.16 841.647 1237.93 842.347 1238.46 843.245C1239.01 844.143 1239.28 845.161 1239.28 846.299C1239.28 847.744 1238.85 848.97 1238 849.977C1237.15 850.984 1235.84 851.575 1234.09 851.751V851.948C1235.84 852.386 1237.21 853.075 1238.2 854.017C1239.2 854.936 1239.71 856.217 1239.71 857.859C1239.71 859.742 1239.08 861.274 1237.84 862.457C1236.61 863.639 1234.81 864.23 1232.45 864.23C1230.11 864.23 1228.21 863.628 1226.77 862.424C1225.32 861.198 1224.46 859.424 1224.17 857.104H1226.44C1226.68 858.658 1227.3 859.906 1228.31 860.847C1229.34 861.767 1230.7 862.227 1232.38 862.227C1234.03 862.227 1235.27 861.811 1236.13 860.979C1237 860.147 1237.44 859.063 1237.44 857.728C1237.44 856.151 1236.82 854.958 1235.57 854.148C1234.34 853.316 1232.6 852.9 1230.35 852.9H1229.63V850.962H1230.35C1234.79 850.962 1237.01 849.485 1237.01 846.529C1237.01 845.237 1236.6 844.208 1235.77 843.442C1234.93 842.676 1233.78 842.293 1232.32 842.293C1230.87 842.293 1229.65 842.698 1228.64 843.508C1227.63 844.318 1227.03 845.533 1226.83 847.153H1224.57C1224.74 845.007 1225.51 843.343 1226.87 842.161C1228.22 840.957 1230.06 840.355 1232.38 840.355ZM1246.54 857.629C1246.76 859.14 1247.28 860.311 1248.11 861.143C1248.94 861.953 1250.09 862.358 1251.56 862.358C1253.62 862.358 1255.16 861.592 1256.19 860.059C1257.24 858.505 1257.77 856.031 1257.77 852.637C1257.77 852.046 1257.76 851.597 1257.74 851.291C1257.43 852.714 1256.64 853.852 1255.37 854.706C1254.12 855.56 1252.64 855.987 1250.94 855.987C1248.62 855.987 1246.8 855.286 1245.49 853.885C1244.17 852.484 1243.52 850.546 1243.52 848.072C1243.52 846.649 1243.79 845.358 1244.34 844.197C1244.88 843.037 1245.73 842.117 1246.87 841.439C1248.03 840.738 1249.47 840.388 1251.2 840.388C1254.51 840.388 1256.77 841.406 1258 843.442C1259.22 845.478 1259.84 848.27 1259.84 851.816C1259.84 855.845 1259.19 858.932 1257.9 861.077C1256.63 863.201 1254.52 864.263 1251.56 864.263C1249.42 864.263 1247.73 863.661 1246.5 862.457C1245.28 861.23 1244.57 859.621 1244.37 857.629H1246.54ZM1257.44 848.631C1257.44 846.901 1256.93 845.434 1255.9 844.23C1254.87 843.004 1253.32 842.391 1251.27 842.391C1249.58 842.391 1248.22 842.895 1247.19 843.902C1246.19 844.909 1245.68 846.31 1245.68 848.105C1245.68 850.054 1246.19 851.554 1247.19 852.604C1248.22 853.633 1249.62 854.148 1251.4 854.148C1252.4 854.148 1253.37 853.951 1254.29 853.557C1255.23 853.141 1255.98 852.517 1256.55 851.685C1257.14 850.853 1257.44 849.835 1257.44 848.631Z" fill="white"/>
<path d="M885.77 848.861L884.489 854.936H889.185V856.972H884.062L882.551 864H880.351L881.862 856.972H874.571L873.061 864H870.86L872.371 856.972H867.149V854.936H872.798L874.079 848.861H868.956V846.825H874.538L876.049 839.698H878.249L876.739 846.825H884.029L885.54 839.698H887.74L886.23 846.825H890.991V848.861H885.77ZM883.57 848.861H876.279L874.998 854.936H882.289L883.57 848.861ZM907.691 841.045V842.949H897.577V851.521H906.115V853.425H897.577V864H895.278V841.045H907.691ZM923.887 841.045V842.949H913.772V851.521H922.311V853.425H913.772V864H911.473V841.045H923.887ZM926.618 852.506C926.618 850.251 927.111 848.237 928.096 846.463C929.081 844.668 930.428 843.278 932.135 842.293C933.843 841.286 935.748 840.782 937.85 840.782C940.411 840.782 942.6 841.395 944.418 842.621C946.257 843.825 947.592 845.533 948.424 847.744H945.731C945.074 846.19 944.067 844.975 942.71 844.099C941.374 843.223 939.754 842.785 937.85 842.785C936.164 842.785 934.642 843.179 933.285 843.967C931.949 844.756 930.898 845.894 930.132 847.383C929.366 848.85 928.983 850.557 928.983 852.506C928.983 854.454 929.366 856.162 930.132 857.629C930.898 859.096 931.949 860.223 933.285 861.012C934.642 861.8 936.164 862.194 937.85 862.194C939.754 862.194 941.374 861.767 942.71 860.913C944.067 860.037 945.074 858.833 945.731 857.301H948.424C947.592 859.49 946.257 861.187 944.418 862.391C942.579 863.595 940.389 864.197 937.85 864.197C935.748 864.197 933.843 863.704 932.135 862.719C930.428 861.712 929.081 860.322 928.096 858.549C927.111 856.775 926.618 854.761 926.618 852.506ZM959.803 841.045C962.342 841.045 964.521 841.504 966.338 842.424C968.155 843.343 969.545 844.668 970.509 846.398C971.472 848.127 971.954 850.185 971.954 852.572C971.954 854.936 971.472 856.983 970.509 858.713C969.545 860.42 968.155 861.734 966.338 862.654C964.521 863.551 962.342 864 959.803 864H953.005V841.045H959.803ZM959.803 862.095C962.999 862.095 965.429 861.263 967.093 859.599C968.779 857.914 969.622 855.571 969.622 852.572C969.622 849.55 968.779 847.197 967.093 845.511C965.429 843.803 962.999 842.949 959.803 842.949H955.304V862.095H959.803ZM974.583 842.522V840.454H980.165V864H977.834V842.522H974.583ZM999.081 858.549H988.638L986.635 864H984.205L992.579 841.34H995.173L1003.51 864H1001.08L999.081 858.549ZM998.392 856.644L993.86 844.23L989.328 856.644H998.392Z" fill="#808F81" fill-opacity="0.8"/>
<path d="M627.77 848.861L626.489 854.936H631.185V856.972H626.062L624.551 864H622.351L623.862 856.972H616.571L615.061 864H612.86L614.371 856.972H609.149V854.936H614.798L616.079 848.861H610.956V846.825H616.538L618.049 839.698H620.249L618.739 846.825H626.029L627.54 839.698H629.74L628.23 846.825H632.991V848.861H627.77ZM625.57 848.861H618.279L616.998 854.936H624.289L625.57 848.861ZM650.578 858.549H640.135L638.132 864H635.702L644.076 841.34H646.67L655.012 864H652.581L650.578 858.549ZM649.888 856.644L645.357 844.23L640.825 856.644H649.888ZM672.001 858.549H661.558L659.555 864H657.125L665.499 841.34H668.093L676.435 864H674.004L672.001 858.549ZM671.312 856.644L666.78 844.23L662.248 856.644H671.312ZM682.423 842.917V851.488H691.126V853.393H682.423V862.095H692.111V864H680.124V841.012H692.111V842.917H682.423ZM696.148 852.013C696.148 848.248 696.728 845.325 697.888 843.245C699.049 841.165 701.129 840.125 704.128 840.125C707.127 840.125 709.207 841.165 710.368 843.245C711.528 845.325 712.108 848.248 712.108 852.013C712.108 855.845 711.528 858.811 710.368 860.913C709.207 863.015 707.127 864.066 704.128 864.066C701.107 864.066 699.016 863.015 697.855 860.913C696.717 858.811 696.148 855.845 696.148 852.013ZM709.842 852.013C709.842 849.977 709.7 848.259 709.415 846.857C709.131 845.456 708.572 844.329 707.74 843.475C706.908 842.621 705.704 842.194 704.128 842.194C702.552 842.194 701.348 842.621 700.516 843.475C699.684 844.329 699.125 845.456 698.841 846.857C698.556 848.259 698.414 849.977 698.414 852.013C698.414 854.115 698.556 855.878 698.841 857.301C699.125 858.702 699.684 859.829 700.516 860.683C701.348 861.537 702.552 861.964 704.128 861.964C705.704 861.964 706.908 861.537 707.74 860.683C708.572 859.829 709.131 858.702 709.415 857.301C709.7 855.878 709.842 854.115 709.842 852.013ZM715.826 852.506C715.826 850.251 716.319 848.237 717.304 846.463C718.289 844.668 719.635 843.278 721.343 842.293C723.051 841.286 724.956 840.782 727.057 840.782C729.619 840.782 731.808 841.395 733.625 842.621C735.464 843.825 736.8 845.533 737.632 847.744H734.939C734.282 846.19 733.275 844.975 731.918 844.099C730.582 843.223 728.962 842.785 727.057 842.785C725.372 842.785 723.85 843.179 722.493 843.967C721.157 844.756 720.106 845.894 719.34 847.383C718.574 848.85 718.191 850.557 718.191 852.506C718.191 854.454 718.574 856.162 719.34 857.629C720.106 859.096 721.157 860.223 722.493 861.012C723.85 861.8 725.372 862.194 727.057 862.194C728.962 862.194 730.582 861.767 731.918 860.913C733.275 860.037 734.282 858.833 734.939 857.301H737.632C736.8 859.49 735.464 861.187 733.625 862.391C731.786 863.595 729.597 864.197 727.057 864.197C724.956 864.197 723.051 863.704 721.343 862.719C719.635 861.712 718.289 860.322 717.304 858.549C716.319 856.775 715.826 854.761 715.826 852.506ZM755.25 846.201C754.769 843.354 753.116 841.931 750.291 841.931C748.146 841.931 746.537 842.763 745.464 844.427C744.391 846.091 743.898 848.817 743.986 852.604C744.424 851.291 745.256 850.262 746.482 849.517C747.73 848.751 749.153 848.368 750.751 848.368C753.05 848.368 754.867 849.08 756.203 850.503C757.56 851.904 758.239 853.841 758.239 856.315C758.239 857.76 757.954 859.074 757.385 860.256C756.837 861.417 755.984 862.347 754.823 863.048C753.685 863.748 752.262 864.099 750.554 864.099C747.292 864.099 745.037 863.059 743.789 860.979C742.563 858.899 741.95 855.954 741.95 852.145C741.95 844.044 744.73 839.994 750.291 839.994C752.393 839.994 754.046 840.574 755.25 841.734C756.454 842.873 757.166 844.362 757.385 846.201H755.25ZM750.324 850.338C749.295 850.338 748.321 850.546 747.401 850.962C746.482 851.378 745.727 852.013 745.135 852.867C744.566 853.699 744.282 854.728 744.282 855.954C744.282 857.728 744.807 859.205 745.858 860.388C746.909 861.57 748.441 862.161 750.456 862.161C752.141 862.161 753.488 861.646 754.495 860.617C755.502 859.588 756.006 858.187 756.006 856.414C756.006 854.509 755.513 853.02 754.528 851.948C753.543 850.875 752.141 850.338 750.324 850.338Z" fill="white"/>
<path d="M372.606 849.091L371.391 854.772H376.12V856.874H370.931L369.42 864H367.22L368.73 856.874H361.407L359.896 864H357.729L359.24 856.874H354.084V854.772H359.699L360.914 849.091H355.857V846.989H361.374L362.918 839.698H365.085L363.542 846.989H370.865L372.409 839.698H374.609L373.065 846.989H377.893V849.091H372.606ZM370.405 849.091H363.082L361.867 854.772H369.19L370.405 849.091ZM396.153 842.687H383.87V851.258C384.461 850.47 385.304 849.835 386.399 849.353C387.494 848.872 388.676 848.631 389.946 848.631C392.42 848.631 394.259 849.342 395.463 850.765C396.689 852.188 397.302 853.973 397.302 856.118C397.302 858.461 396.645 860.388 395.332 861.898C394.018 863.409 392.069 864.164 389.486 864.164C387.231 864.164 385.381 863.551 383.936 862.325C382.513 861.099 381.692 859.435 381.473 857.333H383.739C384.024 858.866 384.658 860.048 385.644 860.88C386.629 861.712 387.866 862.128 389.355 862.128C391.237 862.128 392.65 861.581 393.591 860.486C394.554 859.37 395.036 857.903 395.036 856.086C395.036 854.334 394.554 852.966 393.591 851.98C392.628 850.995 391.248 850.503 389.453 850.503C388.205 850.503 387.1 850.765 386.136 851.291C385.195 851.816 384.472 852.539 383.969 853.458H381.736V840.651H396.153V842.687ZM400.992 852.309C400.992 856.053 401.573 858.964 402.733 861.044C403.915 863.102 405.995 864.131 408.973 864.131C411.928 864.131 413.997 863.102 415.179 861.044C416.362 858.964 416.953 856.053 416.953 852.309C416.953 848.587 416.362 845.697 415.179 843.639C413.997 841.581 411.928 840.552 408.973 840.552C405.995 840.552 403.915 841.581 402.733 843.639C401.573 845.697 400.992 848.587 400.992 852.309ZM414.654 852.309C414.654 854.345 414.501 856.064 414.194 857.465C413.91 858.844 413.351 859.939 412.519 860.749C411.687 861.559 410.505 861.964 408.973 861.964C407.418 861.964 406.225 861.559 405.393 860.749C404.561 859.939 403.992 858.844 403.685 857.465C403.401 856.064 403.258 854.345 403.258 852.309C403.258 850.295 403.401 848.598 403.685 847.219C403.992 845.839 404.561 844.745 405.393 843.935C406.225 843.125 407.418 842.72 408.973 842.72C410.505 842.72 411.687 843.125 412.519 843.935C413.351 844.745 413.91 845.839 414.194 847.219C414.501 848.598 414.654 850.295 414.654 852.309ZM440.612 852.407C440.612 854.794 440.141 856.863 439.199 858.614C438.258 860.344 436.868 861.679 435.029 862.621C433.212 863.54 431.011 864 428.428 864H421.433V840.848H428.428C432.325 840.848 435.324 841.877 437.426 843.935C439.55 845.971 440.612 848.795 440.612 852.407ZM428.264 861.931C431.526 861.931 434.011 861.099 435.718 859.435C437.426 857.749 438.28 855.407 438.28 852.407C438.28 849.408 437.426 847.076 435.718 845.412C434.011 843.727 431.526 842.884 428.264 842.884H423.765V861.931H428.264ZM444.32 852.309C444.32 856.053 444.9 858.964 446.06 861.044C447.242 863.102 449.322 864.131 452.3 864.131C455.255 864.131 457.324 863.102 458.507 861.044C459.689 858.964 460.28 856.053 460.28 852.309C460.28 848.587 459.689 845.697 458.507 843.639C457.324 841.581 455.255 840.552 452.3 840.552C449.322 840.552 447.242 841.581 446.06 843.639C444.9 845.697 444.32 848.587 444.32 852.309ZM457.981 852.309C457.981 854.345 457.828 856.064 457.521 857.465C457.237 858.844 456.679 859.939 455.847 860.749C455.015 861.559 453.832 861.964 452.3 861.964C450.745 861.964 449.552 861.559 448.72 860.749C447.888 859.939 447.319 858.844 447.013 857.465C446.728 856.064 446.586 854.345 446.586 852.309C446.586 850.295 446.728 848.598 447.013 847.219C447.319 845.839 447.888 844.745 448.72 843.935C449.552 843.125 450.745 842.72 452.3 842.72C453.832 842.72 455.015 843.125 455.847 843.935C456.679 844.745 457.237 845.839 457.521 847.219C457.828 848.598 457.981 850.295 457.981 852.309ZM467.026 857.629C467.245 859.14 467.771 860.311 468.602 861.143C469.434 861.953 470.584 862.358 472.051 862.358C474.109 862.358 475.652 861.592 476.681 860.059C477.732 858.505 478.258 856.031 478.258 852.637C478.258 852.046 478.247 851.597 478.225 851.291C477.918 852.714 477.13 853.852 475.86 854.706C474.612 855.56 473.134 855.987 471.427 855.987C469.106 855.987 467.289 855.286 465.975 853.885C464.662 852.484 464.005 850.546 464.005 848.072C464.005 846.649 464.279 845.358 464.826 844.197C465.373 843.037 466.216 842.117 467.355 841.439C468.515 840.738 469.96 840.388 471.689 840.388C474.995 840.388 477.261 841.406 478.487 843.442C479.713 845.478 480.326 848.27 480.326 851.816C480.326 855.845 479.681 858.932 478.389 861.077C477.119 863.201 475.006 864.263 472.051 864.263C469.905 864.263 468.219 863.661 466.993 862.457C465.767 861.23 465.056 859.621 464.859 857.629H467.026ZM477.929 848.631C477.929 846.901 477.415 845.434 476.386 844.23C475.357 843.004 473.813 842.391 471.755 842.391C470.069 842.391 468.712 842.895 467.683 843.902C466.676 844.909 466.172 846.31 466.172 848.105C466.172 850.054 466.676 851.554 467.683 852.604C468.712 853.633 470.113 854.148 471.887 854.148C472.894 854.148 473.857 853.951 474.776 853.557C475.718 853.141 476.473 852.517 477.042 851.685C477.634 850.853 477.929 849.835 477.929 848.631ZM492.128 840.355C493.595 840.355 494.842 840.618 495.871 841.143C496.9 841.647 497.678 842.347 498.203 843.245C498.75 844.143 499.024 845.161 499.024 846.299C499.024 847.744 498.597 848.97 497.743 849.977C496.889 850.984 495.587 851.575 493.835 851.751V851.948C495.587 852.386 496.955 853.075 497.94 854.017C498.947 854.936 499.451 856.217 499.451 857.859C499.451 859.742 498.827 861.274 497.579 862.457C496.353 863.639 494.558 864.23 492.193 864.23C489.851 864.23 487.957 863.628 486.512 862.424C485.067 861.198 484.202 859.424 483.918 857.104H486.184C486.424 858.658 487.048 859.906 488.055 860.847C489.084 861.767 490.442 862.227 492.128 862.227C493.77 862.227 495.018 861.811 495.871 860.979C496.747 860.147 497.185 859.063 497.185 857.728C497.185 856.151 496.561 854.958 495.313 854.148C494.087 853.316 492.347 852.9 490.092 852.9H489.369V850.962H490.092C494.536 850.962 496.758 849.485 496.758 846.529C496.758 845.237 496.342 844.208 495.51 843.442C494.678 842.676 493.529 842.293 492.062 842.293C490.617 842.293 489.391 842.698 488.384 843.508C487.377 844.318 486.775 845.533 486.578 847.153H484.312C484.487 845.007 485.253 843.343 486.61 842.161C487.968 840.957 489.807 840.355 492.128 840.355Z" fill="white"/>
<path d="M359.926 709.917V718.488H368.629V720.393H359.926V729.095H369.614V731H357.627V708.012H369.614V709.917H359.926ZM395.49 712.741C397.591 712.741 399.299 713.409 400.613 714.744C401.948 716.058 402.616 717.973 402.616 720.491V731H400.35V720.754C400.35 718.805 399.879 717.317 398.938 716.288C397.996 715.259 396.716 714.744 395.096 714.744C393.41 714.744 392.063 715.302 391.056 716.419C390.049 717.536 389.546 719.156 389.546 721.279V731H387.28V720.754C387.28 718.805 386.809 717.317 385.868 716.288C384.926 715.259 383.634 714.744 381.992 714.744C380.307 714.744 378.96 715.302 377.953 716.419C376.946 717.536 376.442 719.156 376.442 721.279V731H374.144V713.069H376.442V716.156C377.012 715.04 377.822 714.197 378.873 713.628C379.923 713.036 381.095 712.741 382.386 712.741C383.941 712.741 385.298 713.113 386.459 713.857C387.641 714.602 388.495 715.696 389.02 717.141C389.502 715.718 390.323 714.635 391.483 713.89C392.665 713.124 394.001 712.741 395.49 712.741ZM423.944 721.115C423.944 721.903 423.923 722.505 423.879 722.921H409.002C409.068 724.279 409.396 725.439 409.987 726.402C410.578 727.366 411.356 728.099 412.319 728.603C413.282 729.084 414.333 729.325 415.472 729.325C416.96 729.325 418.208 728.964 419.215 728.241C420.244 727.519 420.923 726.545 421.252 725.319H423.682C423.244 727.07 422.302 728.504 420.857 729.621C419.434 730.715 417.639 731.263 415.472 731.263C413.786 731.263 412.275 730.891 410.94 730.146C409.604 729.38 408.553 728.307 407.787 726.928C407.043 725.527 406.671 723.896 406.671 722.035C406.671 720.174 407.043 718.543 407.787 717.141C408.531 715.74 409.571 714.667 410.907 713.923C412.242 713.179 413.764 712.807 415.472 712.807C417.179 712.807 418.668 713.179 419.938 713.923C421.23 714.667 422.215 715.675 422.894 716.944C423.594 718.192 423.944 719.583 423.944 721.115ZM421.613 721.049C421.635 719.714 421.361 718.575 420.792 717.634C420.244 716.693 419.489 715.981 418.526 715.499C417.563 715.018 416.512 714.777 415.373 714.777C413.665 714.777 412.21 715.324 411.005 716.419C409.801 717.514 409.134 719.057 409.002 721.049H421.613ZM430.449 716.255C430.953 715.138 431.719 714.273 432.748 713.66C433.799 713.047 435.08 712.741 436.59 712.741V715.138H435.966C434.302 715.138 432.967 715.587 431.96 716.485C430.953 717.382 430.449 718.882 430.449 720.984V731H428.15V713.069H430.449V716.255ZM438.998 722.002C438.998 720.163 439.359 718.554 440.081 717.174C440.826 715.773 441.844 714.7 443.135 713.956C444.449 713.19 445.927 712.807 447.569 712.807C449.277 712.807 450.743 713.201 451.97 713.989C453.217 714.777 454.115 715.784 454.662 717.01V713.069H456.961V731H454.662V727.026C454.093 728.252 453.185 729.27 451.937 730.08C450.711 730.869 449.244 731.263 447.536 731.263C445.916 731.263 444.449 730.88 443.135 730.113C441.844 729.347 440.826 728.263 440.081 726.862C439.359 725.461 438.998 723.841 438.998 722.002ZM454.662 722.035C454.662 720.59 454.367 719.32 453.776 718.225C453.185 717.13 452.375 716.288 451.346 715.696C450.338 715.105 449.222 714.81 447.996 714.81C446.726 714.81 445.588 715.094 444.58 715.664C443.573 716.233 442.774 717.065 442.183 718.159C441.614 719.232 441.329 720.513 441.329 722.002C441.329 723.469 441.614 724.76 442.183 725.877C442.774 726.972 443.573 727.814 444.58 728.406C445.588 728.975 446.726 729.259 447.996 729.259C449.222 729.259 450.338 728.964 451.346 728.373C452.375 727.782 453.185 726.939 453.776 725.844C454.367 724.749 454.662 723.48 454.662 722.035ZM464.508 706.698V731H462.209V706.698H464.508ZM468.663 722.002C468.663 720.163 469.035 718.554 469.779 717.174C470.524 715.773 471.542 714.7 472.834 713.956C474.147 713.19 475.625 712.807 477.267 712.807C478.843 712.807 480.266 713.19 481.536 713.956C482.806 714.722 483.737 715.718 484.328 716.944V706.698H486.626V731H484.328V726.993C483.78 728.241 482.883 729.27 481.635 730.08C480.387 730.869 478.92 731.263 477.234 731.263C475.592 731.263 474.114 730.88 472.801 730.113C471.509 729.347 470.491 728.263 469.747 726.862C469.024 725.461 468.663 723.841 468.663 722.002ZM484.328 722.035C484.328 720.59 484.032 719.32 483.441 718.225C482.85 717.13 482.04 716.288 481.011 715.696C480.004 715.105 478.887 714.81 477.661 714.81C476.391 714.81 475.253 715.094 474.246 715.664C473.239 716.233 472.439 717.065 471.848 718.159C471.279 719.232 470.995 720.513 470.995 722.002C470.995 723.469 471.279 724.76 471.848 725.877C472.439 726.972 473.239 727.814 474.246 728.406C475.253 728.975 476.391 729.259 477.661 729.259C478.887 729.259 480.004 728.964 481.011 728.373C482.04 727.782 482.85 726.939 483.441 725.844C484.032 724.749 484.328 723.48 484.328 722.035Z" fill="white"/>
<path d="M608.307 714.646C608.307 716.616 607.661 718.203 606.369 719.407C605.078 720.612 603.14 721.214 600.557 721.214H595.926V731H593.627V708.045H600.557C603.118 708.045 605.045 708.647 606.336 709.851C607.65 711.055 608.307 712.653 608.307 714.646ZM600.557 719.243C604.147 719.243 605.942 717.711 605.942 714.646C605.942 713.113 605.515 711.953 604.662 711.165C603.808 710.376 602.439 709.982 600.557 709.982H595.926V719.243H600.557ZM611.113 722.002C611.113 720.163 611.474 718.554 612.197 717.174C612.941 715.773 613.959 714.7 615.251 713.956C616.565 713.19 618.042 712.807 619.684 712.807C621.392 712.807 622.859 713.201 624.085 713.989C625.333 714.777 626.231 715.784 626.778 717.01V713.069H629.077V731H626.778V727.026C626.209 728.252 625.3 729.27 624.052 730.08C622.826 730.869 621.359 731.263 619.652 731.263C618.031 731.263 616.565 730.88 615.251 730.113C613.959 729.347 612.941 728.263 612.197 726.862C611.474 725.461 611.113 723.841 611.113 722.002ZM626.778 722.035C626.778 720.59 626.482 719.32 625.891 718.225C625.3 717.13 624.49 716.288 623.461 715.696C622.454 715.105 621.337 714.81 620.111 714.81C618.842 714.81 617.703 715.094 616.696 715.664C615.689 716.233 614.89 717.065 614.299 718.159C613.729 719.232 613.445 720.513 613.445 722.002C613.445 723.469 613.729 724.76 614.299 725.877C614.89 726.972 615.689 727.814 616.696 728.406C617.703 728.975 618.842 729.259 620.111 729.259C621.337 729.259 622.454 728.964 623.461 728.373C624.49 727.782 625.3 726.939 625.891 725.844C626.482 724.749 626.778 723.48 626.778 722.035ZM636.624 706.698V731H634.325V706.698H636.624ZM658.052 721.115C658.052 721.903 658.03 722.505 657.987 722.921H643.11C643.176 724.279 643.504 725.439 644.095 726.402C644.686 727.366 645.464 728.099 646.427 728.603C647.39 729.084 648.441 729.325 649.58 729.325C651.068 729.325 652.316 728.964 653.323 728.241C654.352 727.519 655.031 726.545 655.359 725.319H657.79C657.352 727.07 656.41 728.504 654.965 729.621C653.542 730.715 651.747 731.263 649.58 731.263C647.894 731.263 646.383 730.891 645.048 730.146C643.712 729.38 642.661 728.307 641.895 726.928C641.151 725.527 640.778 723.896 640.778 722.035C640.778 720.174 641.151 718.543 641.895 717.141C642.639 715.74 643.679 714.667 645.015 713.923C646.35 713.179 647.872 712.807 649.58 712.807C651.287 712.807 652.776 713.179 654.046 713.923C655.338 714.667 656.323 715.675 657.001 716.944C657.702 718.192 658.052 719.583 658.052 721.115ZM655.721 721.049C655.743 719.714 655.469 718.575 654.9 717.634C654.352 716.693 653.597 715.981 652.634 715.499C651.67 715.018 650.619 714.777 649.481 714.777C647.773 714.777 646.317 715.324 645.113 716.419C643.909 717.514 643.241 719.057 643.11 721.049H655.721ZM689.332 714.744C688.675 713.233 687.668 712.051 686.311 711.197C684.975 710.322 683.399 709.884 681.582 709.884C679.874 709.884 678.342 710.278 676.984 711.066C675.627 711.854 674.554 712.982 673.766 714.449C672.978 715.893 672.584 717.579 672.584 719.506C672.584 721.433 672.978 723.129 673.766 724.596C674.554 726.063 675.627 727.191 676.984 727.979C678.342 728.767 679.874 729.161 681.582 729.161C683.18 729.161 684.614 728.822 685.884 728.143C687.176 727.442 688.205 726.457 688.971 725.187C689.759 723.896 690.208 722.396 690.317 720.688H680.662V718.816H692.747V720.491C692.638 722.505 692.091 724.333 691.105 725.975C690.12 727.596 688.796 728.876 687.132 729.818C685.49 730.759 683.64 731.23 681.582 731.23C679.458 731.23 677.532 730.737 675.802 729.752C674.072 728.745 672.704 727.355 671.697 725.581C670.712 723.786 670.219 721.761 670.219 719.506C670.219 717.251 670.712 715.237 671.697 713.463C672.704 711.668 674.072 710.278 675.802 709.293C677.532 708.286 679.458 707.782 681.582 707.782C684.034 707.782 686.179 708.395 688.019 709.621C689.858 710.847 691.193 712.555 692.025 714.744H689.332ZM699.257 716.255C699.761 715.138 700.527 714.273 701.556 713.66C702.607 713.047 703.888 712.741 705.398 712.741V715.138H704.774C703.111 715.138 701.775 715.587 700.768 716.485C699.761 717.382 699.257 718.882 699.257 720.984V731H696.958V713.069H699.257V716.255ZM725.08 721.115C725.08 721.903 725.058 722.505 725.014 722.921H710.137C710.203 724.279 710.532 725.439 711.123 726.402C711.714 727.366 712.491 728.099 713.454 728.603C714.418 729.084 715.468 729.325 716.607 729.325C718.096 729.325 719.344 728.964 720.351 728.241C721.38 727.519 722.058 726.545 722.387 725.319H724.817C724.379 727.07 723.438 728.504 721.993 729.621C720.57 730.715 718.774 731.263 716.607 731.263C714.921 731.263 713.411 730.891 712.075 730.146C710.739 729.38 709.689 728.307 708.922 726.928C708.178 725.527 707.806 723.896 707.806 722.035C707.806 720.174 708.178 718.543 708.922 717.141C709.667 715.74 710.707 714.667 712.042 713.923C713.378 713.179 714.899 712.807 716.607 712.807C718.315 712.807 719.803 713.179 721.073 713.923C722.365 714.667 723.35 715.675 724.029 716.944C724.729 718.192 725.08 719.583 725.08 721.115ZM722.748 721.049C722.77 719.714 722.496 718.575 721.927 717.634C721.38 716.693 720.624 715.981 719.661 715.499C718.698 715.018 717.647 714.777 716.508 714.777C714.801 714.777 713.345 715.324 712.141 716.419C710.937 717.514 710.269 719.057 710.137 721.049H722.748ZM745.509 721.115C745.509 721.903 745.487 722.505 745.443 722.921H730.566C730.632 724.279 730.96 725.439 731.552 726.402C732.143 727.366 732.92 728.099 733.883 728.603C734.847 729.084 735.897 729.325 737.036 729.325C738.525 729.325 739.773 728.964 740.78 728.241C741.809 727.519 742.487 726.545 742.816 725.319H745.246C744.808 727.07 743.867 728.504 742.422 729.621C740.999 730.715 739.203 731.263 737.036 731.263C735.35 731.263 733.839 730.891 732.504 730.146C731.168 729.38 730.118 728.307 729.351 726.928C728.607 725.527 728.235 723.896 728.235 722.035C728.235 720.174 728.607 718.543 729.351 717.141C730.096 715.74 731.136 714.667 732.471 713.923C733.807 713.179 735.328 712.807 737.036 712.807C738.744 712.807 740.232 713.179 741.502 713.923C742.794 714.667 743.779 715.675 744.458 716.944C745.158 718.192 745.509 719.583 745.509 721.115ZM743.177 721.049C743.199 719.714 742.925 718.575 742.356 717.634C741.809 716.693 741.053 715.981 740.09 715.499C739.127 715.018 738.076 714.777 736.937 714.777C735.23 714.777 733.774 715.324 732.57 716.419C731.365 717.514 730.698 719.057 730.566 721.049H743.177ZM758.122 712.741C760.267 712.741 762.019 713.409 763.376 714.744C764.733 716.058 765.412 717.973 765.412 720.491V731H763.146V720.754C763.146 718.805 762.654 717.317 761.668 716.288C760.705 715.259 759.38 714.744 757.695 714.744C755.965 714.744 754.586 715.291 753.557 716.386C752.528 717.481 752.013 719.09 752.013 721.214V731H749.715V713.069H752.013V716.123C752.583 715.029 753.404 714.197 754.476 713.628C755.549 713.036 756.764 712.741 758.122 712.741Z" fill="white"/>
<path d="M843.062 715.506C843.062 713.251 843.554 711.237 844.539 709.463C845.525 707.668 846.871 706.278 848.579 705.293C850.286 704.286 852.191 703.782 854.293 703.782C856.854 703.782 859.044 704.395 860.861 705.621C862.7 706.825 864.036 708.533 864.867 710.744H862.175C861.518 709.19 860.511 707.975 859.153 707.099C857.818 706.223 856.198 705.785 854.293 705.785C852.607 705.785 851.086 706.179 849.728 706.967C848.393 707.756 847.342 708.894 846.575 710.383C845.809 711.85 845.426 713.557 845.426 715.506C845.426 717.454 845.809 719.162 846.575 720.629C847.342 722.096 848.393 723.223 849.728 724.012C851.086 724.8 852.607 725.194 854.293 725.194C856.198 725.194 857.818 724.767 859.153 723.913C860.511 723.037 861.518 721.833 862.175 720.301H864.867C864.036 722.49 862.7 724.187 860.861 725.391C859.022 726.595 856.833 727.197 854.293 727.197C852.191 727.197 850.286 726.704 848.579 725.719C846.871 724.712 845.525 723.322 844.539 721.549C843.554 719.775 843.062 717.761 843.062 715.506ZM868.397 718.002C868.397 716.163 868.759 714.554 869.481 713.174C870.225 711.773 871.243 710.7 872.535 709.956C873.849 709.19 875.327 708.807 876.969 708.807C878.676 708.807 880.143 709.201 881.369 709.989C882.617 710.777 883.515 711.784 884.062 713.01V709.069H886.361V727H884.062V723.026C883.493 724.252 882.584 725.27 881.336 726.08C880.11 726.869 878.643 727.263 876.936 727.263C875.316 727.263 873.849 726.88 872.535 726.113C871.243 725.347 870.225 724.263 869.481 722.862C868.759 721.461 868.397 719.841 868.397 718.002ZM884.062 718.035C884.062 716.59 883.767 715.32 883.175 714.225C882.584 713.13 881.774 712.288 880.745 711.696C879.738 711.105 878.622 710.81 877.396 710.81C876.126 710.81 874.987 711.094 873.98 711.664C872.973 712.233 872.174 713.065 871.583 714.159C871.014 715.232 870.729 716.513 870.729 718.002C870.729 719.469 871.014 720.76 871.583 721.877C872.174 722.972 872.973 723.814 873.98 724.406C874.987 724.975 876.126 725.259 877.396 725.259C878.622 725.259 879.738 724.964 880.745 724.373C881.774 723.782 882.584 722.939 883.175 721.844C883.767 720.749 884.062 719.48 884.062 718.035ZM900.016 708.741C902.162 708.741 903.913 709.409 905.27 710.744C906.628 712.058 907.307 713.973 907.307 716.491V727H905.041V716.754C905.041 714.805 904.548 713.317 903.563 712.288C902.599 711.259 901.275 710.744 899.589 710.744C897.859 710.744 896.48 711.291 895.451 712.386C894.422 713.481 893.908 715.09 893.908 717.214V727H891.609V709.069H893.908V712.123C894.477 711.029 895.298 710.197 896.371 709.628C897.444 709.036 898.659 708.741 900.016 708.741ZM911.34 718.002C911.34 716.163 911.712 714.554 912.456 713.174C913.201 711.773 914.219 710.7 915.51 709.956C916.824 709.19 918.302 708.807 919.944 708.807C921.52 708.807 922.943 709.19 924.213 709.956C925.483 710.722 926.413 711.718 927.005 712.944V702.698H929.303V727H927.005V722.993C926.457 724.241 925.56 725.27 924.312 726.08C923.064 726.869 921.597 727.263 919.911 727.263C918.269 727.263 916.791 726.88 915.478 726.113C914.186 725.347 913.168 724.263 912.423 722.862C911.701 721.461 911.34 719.841 911.34 718.002ZM927.005 718.035C927.005 716.59 926.709 715.32 926.118 714.225C925.527 713.13 924.717 712.288 923.688 711.696C922.681 711.105 921.564 710.81 920.338 710.81C919.068 710.81 917.93 711.094 916.923 711.664C915.915 712.233 915.116 713.065 914.525 714.159C913.956 715.232 913.671 716.513 913.671 718.002C913.671 719.469 913.956 720.76 914.525 721.877C915.116 722.972 915.915 723.814 916.923 724.406C917.93 724.975 919.068 725.259 920.338 725.259C921.564 725.259 922.681 724.964 923.688 724.373C924.717 723.782 925.527 722.939 926.118 721.844C926.709 720.749 927.005 719.48 927.005 718.035ZM936.85 702.698V727H934.551V702.698H936.85ZM958.279 717.115C958.279 717.903 958.257 718.505 958.213 718.921H943.337C943.402 720.279 943.731 721.439 944.322 722.402C944.913 723.366 945.69 724.099 946.653 724.603C947.617 725.084 948.668 725.325 949.806 725.325C951.295 725.325 952.543 724.964 953.55 724.241C954.579 723.519 955.258 722.545 955.586 721.319H958.016C957.578 723.07 956.637 724.504 955.192 725.621C953.769 726.715 951.974 727.263 949.806 727.263C948.12 727.263 946.61 726.891 945.274 726.146C943.939 725.38 942.888 724.307 942.122 722.928C941.377 721.527 941.005 719.896 941.005 718.035C941.005 716.174 941.377 714.543 942.122 713.141C942.866 711.74 943.906 710.667 945.241 709.923C946.577 709.179 948.098 708.807 949.806 708.807C951.514 708.807 953.003 709.179 954.272 709.923C955.564 710.667 956.549 711.675 957.228 712.944C957.929 714.192 958.279 715.583 958.279 717.115ZM955.947 717.049C955.969 715.714 955.696 714.575 955.126 713.634C954.579 712.693 953.824 711.981 952.86 711.499C951.897 711.018 950.846 710.777 949.708 710.777C948 710.777 946.544 711.324 945.34 712.419C944.136 713.514 943.468 715.057 943.337 717.049H955.947ZM964.784 702.698V727H962.485V702.698H964.784ZM971.139 705.687C970.679 705.687 970.285 705.522 969.956 705.194C969.628 704.866 969.464 704.461 969.464 703.979C969.464 703.497 969.628 703.103 969.956 702.797C970.285 702.468 970.679 702.304 971.139 702.304C971.598 702.304 971.993 702.468 972.321 702.797C972.649 703.103 972.814 703.497 972.814 703.979C972.814 704.461 972.649 704.866 972.321 705.194C971.993 705.522 971.598 705.687 971.139 705.687ZM972.288 709.069V727H969.989V709.069H972.288ZM985.014 708.807C986.7 708.807 988.167 709.201 989.415 709.989C990.663 710.777 991.56 711.773 992.108 712.977V709.069H994.407V727.46C994.407 729.102 994.045 730.558 993.323 731.828C992.622 733.097 991.637 734.072 990.367 734.75C989.097 735.451 987.652 735.801 986.032 735.801C983.733 735.801 981.818 735.254 980.285 734.159C978.775 733.064 977.833 731.576 977.461 729.693H979.727C980.121 730.941 980.865 731.937 981.96 732.681C983.077 733.426 984.434 733.798 986.032 733.798C987.193 733.798 988.233 733.546 989.152 733.043C990.072 732.561 990.794 731.838 991.32 730.875C991.845 729.912 992.108 728.773 992.108 727.46V723.026C991.538 724.252 990.63 725.27 989.382 726.08C988.156 726.869 986.7 727.263 985.014 727.263C983.372 727.263 981.894 726.88 980.581 726.113C979.289 725.347 978.271 724.263 977.527 722.862C976.804 721.461 976.443 719.841 976.443 718.002C976.443 716.163 976.804 714.554 977.527 713.174C978.271 711.773 979.289 710.7 980.581 709.956C981.894 709.19 983.372 708.807 985.014 708.807ZM992.108 718.035C992.108 716.59 991.812 715.32 991.221 714.225C990.63 713.13 989.82 712.288 988.791 711.696C987.784 711.105 986.667 710.81 985.441 710.81C984.171 710.81 983.033 711.094 982.026 711.664C981.019 712.233 980.22 713.065 979.628 714.159C979.059 715.232 978.775 716.513 978.775 718.002C978.775 719.469 979.059 720.76 979.628 721.877C980.22 722.972 981.019 723.814 982.026 724.406C983.033 724.975 984.171 725.259 985.441 725.259C986.667 725.259 987.784 724.964 988.791 724.373C989.82 723.782 990.63 722.939 991.221 721.844C991.812 720.749 992.108 719.48 992.108 718.035ZM1008.19 708.741C1009.55 708.741 1010.77 709.025 1011.84 709.595C1012.93 710.164 1013.79 711.04 1014.4 712.222C1015.03 713.382 1015.35 714.805 1015.35 716.491V727H1013.09V716.754C1013.09 714.805 1012.59 713.317 1011.61 712.288C1010.65 711.259 1009.32 710.744 1007.63 710.744C1005.91 710.744 1004.53 711.291 1003.5 712.386C1002.47 713.481 1001.95 715.09 1001.95 717.214V727H999.655V702.698H1001.95V712.123C1002.52 711.051 1003.35 710.219 1004.45 709.628C1005.57 709.036 1006.81 708.741 1008.19 708.741ZM1023.42 711.007V722.14C1023.42 723.234 1023.63 723.99 1024.05 724.406C1024.46 724.822 1025.2 725.03 1026.25 725.03H1028.35V727H1025.89C1024.27 727 1023.06 726.628 1022.28 725.883C1021.49 725.117 1021.09 723.869 1021.09 722.14V711.007H1018.6V709.069H1021.09V704.57H1023.42V709.069H1028.35V711.007H1023.42Z" fill="white"/>
<path d="M1122.62 715.506C1122.62 713.251 1123.11 711.237 1124.1 709.463C1125.08 707.668 1126.43 706.278 1128.14 705.293C1129.85 704.286 1131.75 703.782 1133.85 703.782C1136.41 703.782 1138.6 704.395 1140.42 705.621C1142.26 706.825 1143.6 708.533 1144.43 710.744H1141.73C1141.08 709.19 1140.07 707.975 1138.71 707.099C1137.38 706.223 1135.76 705.785 1133.85 705.785C1132.17 705.785 1130.65 706.179 1129.29 706.967C1127.95 707.756 1126.9 708.894 1126.14 710.383C1125.37 711.85 1124.99 713.557 1124.99 715.506C1124.99 717.454 1125.37 719.162 1126.14 720.629C1126.9 722.096 1127.95 723.223 1129.29 724.012C1130.65 724.8 1132.17 725.194 1133.85 725.194C1135.76 725.194 1137.38 724.767 1138.71 723.913C1140.07 723.037 1141.08 721.833 1141.73 720.301H1144.43C1143.6 722.49 1142.26 724.187 1140.42 725.391C1138.58 726.595 1136.39 727.197 1133.85 727.197C1131.75 727.197 1129.85 726.704 1128.14 725.719C1126.43 724.712 1125.08 723.322 1124.1 721.549C1123.11 719.775 1122.62 717.761 1122.62 715.506ZM1151.31 712.255C1151.81 711.138 1152.58 710.273 1153.61 709.66C1154.66 709.047 1155.94 708.741 1157.45 708.741V711.138H1156.82C1155.16 711.138 1153.82 711.587 1152.82 712.485C1151.81 713.382 1151.31 714.882 1151.31 716.984V727H1149.01V709.069H1151.31V712.255ZM1162.06 705.687C1161.6 705.687 1161.2 705.522 1160.87 705.194C1160.55 704.866 1160.38 704.461 1160.38 703.979C1160.38 703.497 1160.55 703.103 1160.87 702.797C1161.2 702.468 1161.6 702.304 1162.06 702.304C1162.52 702.304 1162.91 702.468 1163.24 702.797C1163.57 703.103 1163.73 703.497 1163.73 703.979C1163.73 704.461 1163.57 704.866 1163.24 705.194C1162.91 705.522 1162.52 705.687 1162.06 705.687ZM1163.21 709.069V727H1160.91V709.069H1163.21ZM1189.76 708.741C1191.86 708.741 1193.57 709.409 1194.88 710.744C1196.22 712.058 1196.88 713.973 1196.88 716.491V727H1194.62V716.754C1194.62 714.805 1194.15 713.317 1193.21 712.288C1192.26 711.259 1190.98 710.744 1189.36 710.744C1187.68 710.744 1186.33 711.302 1185.32 712.419C1184.32 713.536 1183.81 715.156 1183.81 717.279V727H1181.55V716.754C1181.55 714.805 1181.08 713.317 1180.14 712.288C1179.19 711.259 1177.9 710.744 1176.26 710.744C1174.57 710.744 1173.23 711.302 1172.22 712.419C1171.21 713.536 1170.71 715.156 1170.71 717.279V727H1168.41V709.069H1170.71V712.156C1171.28 711.04 1172.09 710.197 1173.14 709.628C1174.19 709.036 1175.36 708.741 1176.65 708.741C1178.21 708.741 1179.57 709.113 1180.73 709.857C1181.91 710.602 1182.76 711.696 1183.29 713.141C1183.77 711.718 1184.59 710.635 1185.75 709.89C1186.93 709.124 1188.27 708.741 1189.76 708.741ZM1208.16 727.263C1206.1 727.263 1204.42 726.792 1203.11 725.851C1201.81 724.887 1201.09 723.585 1200.94 721.943H1203.3C1203.41 722.95 1203.88 723.771 1204.71 724.406C1205.57 725.019 1206.71 725.325 1208.13 725.325C1209.38 725.325 1210.35 725.03 1211.05 724.438C1211.78 723.847 1212.14 723.114 1212.14 722.238C1212.14 721.625 1211.94 721.122 1211.55 720.728C1211.15 720.333 1210.65 720.027 1210.03 719.808C1209.44 719.567 1208.63 719.315 1207.6 719.053C1206.27 718.702 1205.19 718.352 1204.35 718.002C1203.52 717.651 1202.81 717.137 1202.22 716.458C1201.65 715.758 1201.36 714.827 1201.36 713.667C1201.36 712.791 1201.63 711.981 1202.15 711.237C1202.68 710.492 1203.42 709.901 1204.39 709.463C1205.35 709.025 1206.44 708.807 1207.67 708.807C1209.6 708.807 1211.15 709.299 1212.33 710.284C1213.52 711.248 1214.15 712.583 1214.24 714.291H1211.94C1211.87 713.24 1211.46 712.397 1210.69 711.762C1209.95 711.105 1208.92 710.777 1207.6 710.777C1206.44 710.777 1205.5 711.051 1204.78 711.598C1204.06 712.145 1203.7 712.824 1203.7 713.634C1203.7 714.335 1203.9 714.915 1204.32 715.375C1204.76 715.812 1205.29 716.163 1205.93 716.425C1206.56 716.666 1207.42 716.94 1208.49 717.246C1209.78 717.597 1210.81 717.936 1211.58 718.264C1212.34 718.593 1213 719.075 1213.55 719.709C1214.1 720.344 1214.38 721.187 1214.4 722.238C1214.4 723.201 1214.14 724.066 1213.61 724.833C1213.09 725.577 1212.36 726.168 1211.41 726.606C1210.47 727.044 1209.39 727.263 1208.16 727.263ZM1226.58 727.263C1224.89 727.263 1223.37 726.891 1222.01 726.146C1220.68 725.38 1219.62 724.307 1218.83 722.928C1218.06 721.527 1217.68 719.896 1217.68 718.035C1217.68 716.174 1218.07 714.554 1218.86 713.174C1219.65 711.773 1220.72 710.7 1222.08 709.956C1223.44 709.19 1224.96 708.807 1226.64 708.807C1228.33 708.807 1229.85 709.19 1231.21 709.956C1232.59 710.7 1233.66 711.773 1234.43 713.174C1235.22 714.554 1235.61 716.174 1235.61 718.035C1235.61 719.874 1235.22 721.494 1234.43 722.895C1233.64 724.296 1232.56 725.38 1231.18 726.146C1229.8 726.891 1228.26 727.263 1226.58 727.263ZM1226.58 725.259C1227.76 725.259 1228.86 724.997 1229.86 724.471C1230.87 723.924 1231.68 723.114 1232.29 722.041C1232.93 720.946 1233.25 719.611 1233.25 718.035C1233.25 716.458 1232.94 715.134 1232.33 714.061C1231.71 712.966 1230.9 712.156 1229.9 711.631C1228.89 711.083 1227.79 710.81 1226.61 710.81C1225.43 710.81 1224.33 711.083 1223.33 711.631C1222.32 712.156 1221.51 712.966 1220.9 714.061C1220.31 715.134 1220.01 716.458 1220.01 718.035C1220.01 719.611 1220.31 720.946 1220.9 722.041C1221.51 723.114 1222.31 723.924 1223.29 724.471C1224.3 724.997 1225.4 725.259 1226.58 725.259ZM1248.21 708.741C1250.35 708.741 1252.1 709.409 1253.46 710.744C1254.82 712.058 1255.5 713.973 1255.5 716.491V727H1253.23V716.754C1253.23 714.805 1252.74 713.317 1251.75 712.288C1250.79 711.259 1249.47 710.744 1247.78 710.744C1246.05 710.744 1244.67 711.291 1243.64 712.386C1242.61 713.481 1242.1 715.09 1242.1 717.214V727H1239.8V709.069H1242.1V712.123C1242.67 711.029 1243.49 710.197 1244.56 709.628C1245.63 709.036 1246.85 708.741 1248.21 708.741Z" fill="white"/>
</g>
<defs>
<clipPath id="clip0">
<rect width="1920" height="1080" fill="white"/>
</clipPath>
</defs>
</svg>
