<svg width="1801" height="570" viewBox="0 0 1801 570" fill="none" xmlns="http://www.w3.org/2000/svg">
<rect width="1801" height="570" fill="white"/>
<path d="M602.594 125.213V145.9H568.541V253H542.911V145.9H508.858V125.213H602.594ZM718.325 151.576L655.53 300.966H628.251L650.221 250.437L609.578 151.576H638.321L664.5 222.426L691.047 151.576H718.325ZM757.772 166.222C761.067 161.584 765.583 157.739 771.32 154.688C777.178 151.515 783.83 149.928 791.275 149.928C799.941 149.928 807.752 152.064 814.709 156.336C821.788 160.607 827.341 166.71 831.369 174.643C835.519 182.455 837.593 191.547 837.593 201.922C837.593 212.296 835.519 221.511 831.369 229.566C827.341 237.5 821.788 243.663 814.709 248.057C807.752 252.451 799.941 254.648 791.275 254.648C783.83 254.648 777.239 253.122 771.503 250.071C765.888 247.02 761.312 243.175 757.772 238.537V301.332H732.141V151.576H757.772V166.222ZM811.413 201.922C811.413 195.819 810.132 190.571 807.569 186.177C805.128 181.661 801.832 178.244 797.683 175.925C793.655 173.606 789.261 172.446 784.501 172.446C779.863 172.446 775.469 173.667 771.32 176.108C767.292 178.427 763.997 181.844 761.434 186.36C758.993 190.876 757.772 196.185 757.772 202.288C757.772 208.39 758.993 213.7 761.434 218.216C763.997 222.731 767.292 226.21 771.32 228.651C775.469 230.97 779.863 232.129 784.501 232.129C789.261 232.129 793.655 230.909 797.683 228.468C801.832 226.027 805.128 222.548 807.569 218.032C810.132 213.517 811.413 208.146 811.413 201.922ZM901.255 254.648C891.491 254.648 882.704 252.512 874.892 248.24C867.081 243.846 860.917 237.683 856.402 229.749C852.008 221.816 849.811 212.662 849.811 202.288C849.811 191.914 852.069 182.76 856.585 174.826C861.223 166.893 867.508 160.791 875.442 156.519C883.375 152.125 892.224 149.928 901.988 149.928C911.752 149.928 920.6 152.125 928.534 156.519C936.467 160.791 942.692 166.893 947.207 174.826C951.845 182.76 954.164 191.914 954.164 202.288C954.164 212.662 951.784 221.816 947.024 229.749C942.386 237.683 936.04 243.846 927.984 248.24C920.051 252.512 911.141 254.648 901.255 254.648ZM901.255 232.312C905.893 232.312 910.226 231.214 914.254 229.017C918.403 226.698 921.699 223.281 924.14 218.765C926.581 214.249 927.801 208.757 927.801 202.288C927.801 192.646 925.238 185.262 920.112 180.136C915.108 174.887 908.945 172.263 901.621 172.263C894.298 172.263 888.135 174.887 883.131 180.136C878.249 185.262 875.808 192.646 875.808 202.288C875.808 211.93 878.188 219.375 882.948 224.623C887.83 229.749 893.932 232.312 901.255 232.312ZM1012.69 149.928C1020.26 149.928 1026.91 151.454 1032.65 154.505C1038.38 157.434 1042.9 161.279 1046.2 166.039V151.576H1072.01V253.732C1072.01 263.13 1070.12 271.491 1066.33 278.814C1062.55 286.259 1056.88 292.117 1049.31 296.389C1041.74 300.783 1032.59 302.98 1021.85 302.98C1007.44 302.98 995.606 299.623 986.33 292.911C977.176 286.198 971.989 277.044 970.769 265.449H996.216C997.559 270.087 1000.43 273.749 1004.82 276.434C1009.34 279.241 1014.77 280.645 1021.11 280.645C1028.56 280.645 1034.6 278.387 1039.24 273.871C1043.88 269.477 1046.2 262.764 1046.2 253.732V237.988C1042.9 242.748 1038.32 246.714 1032.47 249.888C1026.73 253.061 1020.14 254.648 1012.69 254.648C1004.15 254.648 996.338 252.451 989.259 248.057C982.18 243.663 976.566 237.5 972.416 229.566C968.389 221.511 966.375 212.296 966.375 201.922C966.375 191.669 968.389 182.577 972.416 174.643C976.566 166.71 982.119 160.607 989.076 156.336C996.155 152.064 1004.03 149.928 1012.69 149.928ZM1046.2 202.288C1046.2 196.063 1044.98 190.754 1042.53 186.36C1040.09 181.844 1036.8 178.427 1032.65 176.108C1028.5 173.667 1024.04 172.446 1019.28 172.446C1014.52 172.446 1010.13 173.606 1006.1 175.925C1002.07 178.244 998.779 181.661 996.216 186.177C993.775 190.571 992.555 195.819 992.555 201.922C992.555 208.024 993.775 213.394 996.216 218.032C998.779 222.548 1002.07 226.027 1006.1 228.468C1010.25 230.909 1014.65 232.129 1019.28 232.129C1024.04 232.129 1028.5 230.97 1032.65 228.651C1036.8 226.21 1040.09 222.792 1042.53 218.399C1044.98 213.883 1046.2 208.512 1046.2 202.288ZM1122.67 167.32C1125.97 161.95 1130.24 157.739 1135.49 154.688C1140.86 151.637 1146.96 150.111 1153.8 150.111V177.023H1147.02C1138.97 177.023 1132.86 178.915 1128.71 182.699C1124.69 186.482 1122.67 193.073 1122.67 202.471V253H1097.04V151.576H1122.67V167.32ZM1164.47 201.922C1164.47 191.669 1166.48 182.577 1170.51 174.643C1174.66 166.71 1180.21 160.607 1187.17 156.336C1194.25 152.064 1202.12 149.928 1210.79 149.928C1218.35 149.928 1224.95 151.454 1230.56 154.505C1236.3 157.556 1240.87 161.401 1244.29 166.039V151.576H1270.1V253H1244.29V238.171C1240.99 242.931 1236.42 246.897 1230.56 250.071C1224.82 253.122 1218.17 254.648 1210.6 254.648C1202.06 254.648 1194.25 252.451 1187.17 248.057C1180.21 243.663 1174.66 237.5 1170.51 229.566C1166.48 221.511 1164.47 212.296 1164.47 201.922ZM1244.29 202.288C1244.29 196.063 1243.07 190.754 1240.63 186.36C1238.19 181.844 1234.89 178.427 1230.74 176.108C1226.59 173.667 1222.14 172.446 1217.38 172.446C1212.62 172.446 1208.22 173.606 1204.2 175.925C1200.17 178.244 1196.87 181.661 1194.31 186.177C1191.87 190.571 1190.65 195.819 1190.65 201.922C1190.65 208.024 1191.87 213.394 1194.31 218.032C1196.87 222.548 1200.17 226.027 1204.2 228.468C1208.35 230.909 1212.74 232.129 1217.38 232.129C1222.14 232.129 1226.59 230.97 1230.74 228.651C1234.89 226.21 1238.19 222.792 1240.63 218.399C1243.07 213.883 1244.29 208.512 1244.29 202.288ZM1320.77 166.222C1324.06 161.584 1328.58 157.739 1334.32 154.688C1340.17 151.515 1346.83 149.928 1354.27 149.928C1362.94 149.928 1370.75 152.064 1377.7 156.336C1384.78 160.607 1390.34 166.71 1394.36 174.643C1398.51 182.455 1400.59 191.547 1400.59 201.922C1400.59 212.296 1398.51 221.511 1394.36 229.566C1390.34 237.5 1384.78 243.663 1377.7 248.057C1370.75 252.451 1362.94 254.648 1354.27 254.648C1346.83 254.648 1340.23 253.122 1334.5 250.071C1328.88 247.02 1324.31 243.175 1320.77 238.537V301.332H1295.14V151.576H1320.77V166.222ZM1374.41 201.922C1374.41 195.819 1373.13 190.571 1370.56 186.177C1368.12 181.661 1364.83 178.244 1360.68 175.925C1356.65 173.606 1352.26 172.446 1347.5 172.446C1342.86 172.446 1338.46 173.667 1334.32 176.108C1330.29 178.427 1326.99 181.844 1324.43 186.36C1321.99 190.876 1320.77 196.185 1320.77 202.288C1320.77 208.39 1321.99 213.7 1324.43 218.216C1326.99 222.731 1330.29 226.21 1334.32 228.651C1338.46 230.97 1342.86 232.129 1347.5 232.129C1352.26 232.129 1356.65 230.909 1360.68 228.468C1364.83 226.027 1368.12 222.548 1370.56 218.032C1373.13 213.517 1374.41 208.146 1374.41 201.922ZM1476.33 150.111C1484.02 150.111 1490.86 151.82 1496.84 155.237C1502.82 158.533 1507.46 163.476 1510.75 170.066C1514.17 176.535 1515.88 184.346 1515.88 193.5V253H1490.25V196.979C1490.25 188.923 1488.23 182.76 1484.21 178.488C1480.18 174.094 1474.69 171.897 1467.73 171.897C1460.65 171.897 1455.04 174.094 1450.89 178.488C1446.86 182.76 1444.84 188.923 1444.84 196.979V253H1419.21V117.524H1444.84V164.208C1448.14 159.814 1452.53 156.397 1458.03 153.956C1463.52 151.393 1469.62 150.111 1476.33 150.111ZM1637.28 151.576L1574.49 300.966H1547.21L1569.18 250.437L1528.53 151.576H1557.28L1583.46 222.426L1610 151.576H1637.28Z" fill="#50D093" fill-opacity="0.25"/>
<path d="M611.606 407.091L610.391 412.772H615.12V414.874H609.931L608.42 422H606.22L607.73 414.874H600.407L598.896 422H596.729L598.24 414.874H593.084V412.772H598.699L599.914 407.091H594.857V404.989H600.374L601.918 397.698H604.085L602.542 404.989H609.865L611.409 397.698H613.609L612.065 404.989H616.893V407.091H611.606ZM609.405 407.091H602.082L600.867 412.772H608.19L609.405 407.091ZM633.839 416.351H623.297L621.195 422H618.732L627.271 399.373H629.865L638.404 422H635.908L633.839 416.351ZM633.149 414.512L628.585 402.033L623.954 414.512H633.149ZM654.973 416.351H644.432L642.33 422H639.867L648.405 399.373H651L659.538 422H657.042L654.973 416.351ZM654.284 414.512L649.719 402.033L645.089 414.512H654.284ZM665.074 400.72V409.455H674.105V411.261H665.074V420.095H675.09V422H662.742V398.848H675.09V400.72H665.074ZM678.605 410.309C678.605 414.053 679.186 416.964 680.346 419.044C681.528 421.102 683.608 422.131 686.586 422.131C689.541 422.131 691.61 421.102 692.792 419.044C693.975 416.964 694.566 414.053 694.566 410.309C694.566 406.587 693.975 403.697 692.792 401.639C691.61 399.581 689.541 398.552 686.586 398.552C683.608 398.552 681.528 399.581 680.346 401.639C679.186 403.697 678.605 406.587 678.605 410.309ZM692.267 410.309C692.267 412.345 692.114 414.064 691.807 415.465C691.522 416.844 690.964 417.939 690.132 418.749C689.3 419.559 688.118 419.964 686.586 419.964C685.031 419.964 683.838 419.559 683.006 418.749C682.174 417.939 681.605 416.844 681.298 415.465C681.014 414.064 680.871 412.345 680.871 410.309C680.871 408.295 681.014 406.598 681.298 405.219C681.605 403.839 682.174 402.745 683.006 401.935C683.838 401.125 685.031 400.72 686.586 400.72C688.118 400.72 689.3 401.125 690.132 401.935C690.964 402.745 691.522 403.839 691.807 405.219C692.114 406.598 692.267 408.295 692.267 410.309ZM709.226 398.618C712.007 398.618 714.306 399.296 716.123 400.654C717.94 401.989 719.221 403.839 719.965 406.204H717.535C716.922 404.54 715.904 403.215 714.481 402.23C713.058 401.245 711.295 400.752 709.193 400.752C707.595 400.752 706.139 401.146 704.826 401.935C703.534 402.723 702.516 403.85 701.772 405.317C701.027 406.784 700.655 408.492 700.655 410.44C700.655 412.389 701.027 414.096 701.772 415.563C702.516 417.008 703.534 418.125 704.826 418.913C706.139 419.701 707.595 420.095 709.193 420.095C711.295 420.095 713.058 419.603 714.481 418.617C715.904 417.632 716.922 416.308 717.535 414.644H719.965C719.221 417.008 717.94 418.869 716.123 420.227C714.306 421.562 712.007 422.23 709.226 422.23C707.103 422.23 705.209 421.726 703.545 420.719C701.881 419.712 700.589 418.322 699.67 416.549C698.75 414.753 698.29 412.717 698.29 410.44C698.29 408.141 698.75 406.094 699.67 404.299C700.589 402.504 701.881 401.114 703.545 400.128C705.209 399.121 707.103 398.618 709.226 398.618ZM737.096 404.956C736.899 403.467 736.385 402.318 735.553 401.508C734.721 400.676 733.571 400.26 732.104 400.26C730.09 400.26 728.547 401.026 727.474 402.559C726.423 404.091 725.898 406.532 725.898 409.882C725.898 410.517 725.909 410.999 725.93 411.327C726.237 409.882 727.014 408.743 728.262 407.912C729.51 407.058 730.988 406.631 732.695 406.631C735.038 406.631 736.866 407.331 738.18 408.733C739.493 410.112 740.15 412.038 740.15 414.512C740.15 415.936 739.877 417.227 739.329 418.388C738.782 419.548 737.928 420.478 736.768 421.179C735.607 421.88 734.162 422.23 732.433 422.23C729.127 422.23 726.861 421.201 725.635 419.143C724.431 417.063 723.829 414.25 723.829 410.703C723.829 406.653 724.485 403.588 725.799 401.508C727.113 399.406 729.258 398.355 732.236 398.355C734.359 398.355 736.012 398.968 737.195 400.194C738.377 401.398 739.077 402.986 739.296 404.956H737.096ZM726.193 413.987C726.193 415.082 726.412 416.111 726.85 417.074C727.288 418.015 727.967 418.782 728.886 419.373C729.806 419.942 730.966 420.227 732.367 420.227C734.053 420.227 735.399 419.723 736.406 418.716C737.435 417.687 737.95 416.275 737.95 414.48C737.95 412.531 737.435 411.042 736.406 410.013C735.399 408.984 734.009 408.47 732.236 408.47C731.229 408.47 730.265 408.678 729.346 409.094C728.426 409.51 727.671 410.134 727.08 410.966C726.489 411.776 726.193 412.783 726.193 413.987Z" fill="white"/>
<path d="M166.416 46.052V52.548H155.106V87H146.928V52.548H135.676V46.052H166.416ZM176.428 54.868L185.186 76.676L193.306 54.868H202.296L182.634 102.312H173.586L180.836 86.072L167.322 54.868H176.428ZM225.347 54.462C228.053 54.462 230.489 55.1193 232.655 56.434C234.82 57.7487 236.502 59.6627 237.701 62.176C238.938 64.6507 239.557 67.57 239.557 70.934C239.557 74.298 238.938 77.2367 237.701 79.75C236.502 82.2247 234.82 84.1193 232.655 85.434C230.489 86.7487 228.053 87.406 225.347 87.406C222.64 87.406 220.32 86.768 218.387 85.492C216.492 84.1773 215.139 82.4373 214.327 80.272V102.312H206.149V54.868H214.327V61.538C215.139 59.3727 216.492 57.652 218.387 56.376C220.32 55.1 222.64 54.462 225.347 54.462ZM222.795 61.596C220.32 61.596 218.271 62.4467 216.647 64.148C215.061 65.8107 214.269 68.0727 214.269 70.934C214.269 73.7567 215.061 76.0187 216.647 77.72C218.271 79.3827 220.32 80.214 222.795 80.214C225.347 80.214 227.396 79.402 228.943 77.778C230.489 76.1153 231.263 73.834 231.263 70.934C231.263 68.034 230.489 65.7527 228.943 64.09C227.396 62.4273 225.347 61.596 222.795 61.596ZM260.192 54.462C263.324 54.462 266.127 55.1193 268.602 56.434C271.115 57.7487 273.087 59.6627 274.518 62.176C275.949 64.6507 276.664 67.57 276.664 70.934C276.664 74.298 275.949 77.2173 274.518 79.692C273.087 82.1667 271.115 84.0807 268.602 85.434C266.127 86.7487 263.324 87.406 260.192 87.406C257.06 87.406 254.237 86.7487 251.724 85.434C249.249 84.0807 247.297 82.1667 245.866 79.692C244.435 77.2173 243.72 74.298 243.72 70.934C243.72 67.57 244.435 64.6507 245.866 62.176C247.297 59.6627 249.249 57.7487 251.724 56.434C254.237 55.1193 257.06 54.462 260.192 54.462ZM260.192 61.538C257.911 61.538 255.977 62.35 254.392 63.974C252.807 65.5593 252.014 67.8793 252.014 70.934C252.014 73.9887 252.807 76.328 254.392 77.952C255.977 79.5373 257.911 80.33 260.192 80.33C262.473 80.33 264.407 79.5373 265.992 77.952C267.577 76.328 268.37 73.9887 268.37 70.934C268.37 67.8793 267.577 65.5593 265.992 63.974C264.407 62.35 262.473 61.538 260.192 61.538ZM295.029 54.462C297.736 54.462 300.056 55.1 301.989 56.376C303.923 57.652 305.295 59.3727 306.107 61.538V54.868H314.227V87.116C314.227 90.0933 313.628 92.7613 312.429 95.12C311.269 97.5173 309.51 99.3927 307.151 100.746C304.831 102.099 302.009 102.776 298.683 102.776C294.043 102.776 290.293 101.674 287.431 99.47C284.57 97.266 282.83 94.2693 282.211 90.48H290.273C290.737 92.104 291.627 93.3607 292.941 94.25C294.295 95.178 296.015 95.642 298.103 95.642C300.501 95.642 302.434 94.9267 303.903 93.496C305.373 92.104 306.107 89.9773 306.107 87.116V80.272C305.295 82.4373 303.923 84.1773 301.989 85.492C300.056 86.768 297.736 87.406 295.029 87.406C292.323 87.406 289.887 86.7487 287.721 85.434C285.556 84.1193 283.855 82.2247 282.617 79.75C281.419 77.2367 280.819 74.298 280.819 70.934C280.819 67.57 281.419 64.6507 282.617 62.176C283.855 59.6627 285.556 57.7487 287.721 56.434C289.887 55.1193 292.323 54.462 295.029 54.462ZM297.581 61.596C295.029 61.596 292.98 62.4273 291.433 64.09C289.887 65.7527 289.113 68.034 289.113 70.934C289.113 73.834 289.887 76.1153 291.433 77.778C292.98 79.402 295.029 80.214 297.581 80.214C300.056 80.214 302.086 79.3827 303.671 77.72C305.295 76.0187 306.107 73.7567 306.107 70.934C306.107 68.0727 305.295 65.8107 303.671 64.148C302.086 62.4467 300.056 61.596 297.581 61.596ZM329.817 61.016C331.015 58.9667 332.601 57.362 334.573 56.202C336.545 55.0033 338.749 54.404 341.185 54.404V63.162H338.807C332.813 63.162 329.817 65.946 329.817 71.514V87H321.639V54.868H329.817V61.016ZM358.297 54.462C361.004 54.462 363.324 55.1 365.257 56.376C367.19 57.652 368.563 59.3727 369.375 61.538V54.868H377.495V87H369.375V80.272C368.563 82.4373 367.19 84.1773 365.257 85.492C363.324 86.768 361.004 87.406 358.297 87.406C355.59 87.406 353.154 86.7487 350.989 85.434C348.824 84.1193 347.122 82.2247 345.885 79.75C344.686 77.2367 344.087 74.298 344.087 70.934C344.087 67.57 344.686 64.6507 345.885 62.176C347.122 59.6627 348.824 57.7487 350.989 56.434C353.154 55.1193 355.59 54.462 358.297 54.462ZM360.849 61.596C358.297 61.596 356.248 62.4273 354.701 64.09C353.154 65.7527 352.381 68.034 352.381 70.934C352.381 73.834 353.154 76.1153 354.701 77.778C356.248 79.402 358.297 80.214 360.849 80.214C363.324 80.214 365.354 79.3827 366.939 77.72C368.563 76.0187 369.375 73.7567 369.375 70.934C369.375 68.0727 368.563 65.8107 366.939 64.148C365.354 62.4467 363.324 61.596 360.849 61.596ZM404.104 54.462C406.811 54.462 409.247 55.1193 411.412 56.434C413.578 57.7487 415.26 59.6627 416.458 62.176C417.696 64.6507 418.314 67.57 418.314 70.934C418.314 74.298 417.696 77.2367 416.458 79.75C415.26 82.2247 413.578 84.1193 411.412 85.434C409.247 86.7487 406.811 87.406 404.104 87.406C401.398 87.406 399.078 86.768 397.144 85.492C395.25 84.1773 393.896 82.4373 393.084 80.272V102.312H384.906V54.868H393.084V61.538C393.896 59.3727 395.25 57.652 397.144 56.376C399.078 55.1 401.398 54.462 404.104 54.462ZM401.552 61.596C399.078 61.596 397.028 62.4467 395.404 64.148C393.819 65.8107 393.026 68.0727 393.026 70.934C393.026 73.7567 393.819 76.0187 395.404 77.72C397.028 79.3827 399.078 80.214 401.552 80.214C404.104 80.214 406.154 79.402 407.7 77.778C409.247 76.1153 410.02 73.834 410.02 70.934C410.02 68.034 409.247 65.7527 407.7 64.09C406.154 62.4273 404.104 61.596 401.552 61.596ZM443.242 54.404C446.954 54.404 449.912 55.622 452.116 58.058C454.32 60.494 455.422 63.916 455.422 68.324V87H447.302V69.252C447.302 66.7 446.644 64.728 445.33 63.336C444.015 61.9053 442.217 61.19 439.936 61.19C437.616 61.19 435.76 61.944 434.368 63.452C432.976 64.96 432.28 67.1253 432.28 69.948V87H424.102V44.08H432.28V61.306C433.13 59.1407 434.522 57.4587 436.456 56.26C438.428 55.0227 440.69 54.404 443.242 54.404ZM468.127 54.868L476.885 76.676L485.005 54.868H493.995L474.333 102.312H465.285L472.535 86.072L459.021 54.868H468.127Z" fill="#50D093"/>
<path d="M172.332 198.234C172.332 200.777 171.749 203.112 170.581 205.238C169.414 207.322 167.622 209.011 165.204 210.303C162.786 211.595 159.784 212.242 156.199 212.242H149.57V228H138.877V184.102H156.199C159.701 184.102 162.661 184.706 165.079 185.915C167.496 187.124 169.31 188.792 170.519 190.918C171.728 193.044 172.332 195.483 172.332 198.234ZM155.386 203.737C157.429 203.737 158.95 203.258 159.951 202.299C160.951 201.34 161.452 199.985 161.452 198.234C161.452 196.483 160.951 195.128 159.951 194.169C158.95 193.211 157.429 192.731 155.386 192.731H149.57V203.737H155.386ZM193.783 228.5C190.364 228.5 187.279 227.771 184.528 226.312C181.818 224.852 179.671 222.768 178.087 220.058C176.544 217.348 175.773 214.18 175.773 210.553C175.773 206.968 176.565 203.82 178.149 201.111C179.734 198.359 181.901 196.254 184.653 194.795C187.404 193.336 190.489 192.606 193.908 192.606C197.326 192.606 200.411 193.336 203.163 194.795C205.914 196.254 208.082 198.359 209.666 201.111C211.25 203.82 212.043 206.968 212.043 210.553C212.043 214.138 211.23 217.307 209.604 220.058C208.02 222.768 205.831 224.852 203.038 226.312C200.286 227.771 197.201 228.5 193.783 228.5ZM193.783 219.245C195.826 219.245 197.556 218.495 198.973 216.994C200.432 215.493 201.162 213.346 201.162 210.553C201.162 207.76 200.453 205.613 199.036 204.112C197.66 202.611 195.951 201.861 193.908 201.861C191.823 201.861 190.093 202.611 188.718 204.112C187.342 205.571 186.654 207.718 186.654 210.553C186.654 213.346 187.321 215.493 188.655 216.994C190.031 218.495 191.74 219.245 193.783 219.245ZM228.409 198.047C229.451 196.421 230.889 195.107 232.723 194.107C234.558 193.106 236.705 192.606 239.164 192.606C242.041 192.606 244.646 193.336 246.981 194.795C249.316 196.254 251.15 198.338 252.484 201.048C253.86 203.758 254.548 206.905 254.548 210.491C254.548 214.076 253.86 217.244 252.484 219.996C251.15 222.706 249.316 224.811 246.981 226.312C244.646 227.771 242.041 228.5 239.164 228.5C236.746 228.5 234.599 228 232.723 226.999C230.889 225.999 229.451 224.707 228.409 223.122V244.634H217.715V193.106H228.409V198.047ZM243.667 210.491C243.667 207.823 242.916 205.738 241.416 204.237C239.956 202.695 238.143 201.924 235.975 201.924C233.849 201.924 232.036 202.695 230.535 204.237C229.076 205.78 228.346 207.885 228.346 210.553C228.346 213.221 229.076 215.327 230.535 216.869C232.036 218.412 233.849 219.183 235.975 219.183C238.101 219.183 239.915 218.412 241.416 216.869C242.916 215.285 243.667 213.159 243.667 210.491ZM270.851 198.047C271.893 196.421 273.331 195.107 275.166 194.107C277 193.106 279.147 192.606 281.606 192.606C284.483 192.606 287.089 193.336 289.423 194.795C291.758 196.254 293.592 198.338 294.926 201.048C296.302 203.758 296.99 206.905 296.99 210.491C296.99 214.076 296.302 217.244 294.926 219.996C293.592 222.706 291.758 224.811 289.423 226.312C287.089 227.771 284.483 228.5 281.606 228.5C279.188 228.5 277.042 228 275.166 226.999C273.331 225.999 271.893 224.707 270.851 223.122V244.634H260.158V193.106H270.851V198.047ZM286.109 210.491C286.109 207.823 285.358 205.738 283.858 204.237C282.399 202.695 280.585 201.924 278.417 201.924C276.291 201.924 274.478 202.695 272.977 204.237C271.518 205.78 270.788 207.885 270.788 210.553C270.788 213.221 271.518 215.327 272.977 216.869C274.478 218.412 276.291 219.183 278.417 219.183C280.543 219.183 282.357 218.412 283.858 216.869C285.358 215.285 286.109 213.159 286.109 210.491ZM307.977 189.479C306.101 189.479 304.559 188.938 303.35 187.854C302.183 186.728 301.599 185.352 301.599 183.726C301.599 182.059 302.183 180.683 303.35 179.599C304.559 178.474 306.101 177.911 307.977 177.911C309.812 177.911 311.313 178.474 312.48 179.599C313.689 180.683 314.293 182.059 314.293 183.726C314.293 185.352 313.689 186.728 312.48 187.854C311.313 188.938 309.812 189.479 307.977 189.479ZM313.293 193.106V228H302.6V193.106H313.293ZM342.303 192.731C346.389 192.731 349.641 194.065 352.059 196.733C354.518 199.36 355.748 202.987 355.748 207.614V228H345.117V209.052C345.117 206.718 344.513 204.904 343.304 203.612C342.095 202.32 340.469 201.673 338.426 201.673C336.384 201.673 334.758 202.32 333.549 203.612C332.34 204.904 331.735 206.718 331.735 209.052V228H321.042V193.106H331.735V197.734C332.819 196.191 334.278 194.982 336.113 194.107C337.947 193.19 340.01 192.731 342.303 192.731ZM377.374 228.5C374.33 228.5 371.621 227.979 369.244 226.937C366.868 225.895 364.992 224.477 363.616 222.685C362.241 220.85 361.469 218.808 361.303 216.556H371.871C371.996 217.765 372.559 218.745 373.559 219.495C374.56 220.246 375.79 220.621 377.249 220.621C378.583 220.621 379.604 220.371 380.313 219.871C381.063 219.329 381.438 218.641 381.438 217.807C381.438 216.807 380.917 216.077 379.875 215.618C378.833 215.118 377.144 214.576 374.81 213.993C372.309 213.409 370.224 212.804 368.557 212.179C366.889 211.512 365.451 210.491 364.242 209.115C363.033 207.698 362.428 205.801 362.428 203.424C362.428 201.423 362.97 199.61 364.054 197.984C365.18 196.316 366.806 195.003 368.932 194.044C371.1 193.086 373.663 192.606 376.623 192.606C381.001 192.606 384.44 193.69 386.941 195.858C389.484 198.026 390.943 200.902 391.319 204.487H381.438C381.272 203.278 380.73 202.32 379.813 201.611C378.937 200.902 377.77 200.548 376.311 200.548C375.06 200.548 374.101 200.798 373.434 201.298C372.767 201.757 372.434 202.403 372.434 203.237C372.434 204.237 372.955 204.988 373.997 205.488C375.081 205.988 376.748 206.489 379 206.989C381.584 207.656 383.69 208.323 385.315 208.99C386.941 209.615 388.359 210.657 389.568 212.117C390.818 213.534 391.465 215.452 391.506 217.87C391.506 219.912 390.923 221.747 389.755 223.373C388.63 224.957 386.983 226.207 384.815 227.125C382.689 228.042 380.209 228.5 377.374 228.5Z" fill="black"/>
<path d="M1047.1 331.496V365H1040.38V350.744H1026.03V365H1019.31V331.496H1026.03V345.272H1040.38V331.496H1047.1ZM1078.44 351.128C1078.44 352.088 1078.37 352.952 1078.25 353.72H1058.81C1058.97 355.64 1059.64 357.144 1060.82 358.232C1062.01 359.32 1063.46 359.864 1065.19 359.864C1067.69 359.864 1069.46 358.792 1070.52 356.648H1077.77C1077 359.208 1075.53 361.32 1073.35 362.984C1071.17 364.616 1068.5 365.432 1065.33 365.432C1062.77 365.432 1060.47 364.872 1058.42 363.752C1056.41 362.6 1054.82 360.984 1053.67 358.904C1052.55 356.824 1051.99 354.424 1051.99 351.704C1051.99 348.952 1052.55 346.536 1053.67 344.456C1054.79 342.376 1056.36 340.776 1058.37 339.656C1060.39 338.536 1062.71 337.976 1065.33 337.976C1067.86 337.976 1070.12 338.52 1072.1 339.608C1074.12 340.696 1075.67 342.248 1076.76 344.264C1077.88 346.248 1078.44 348.536 1078.44 351.128ZM1071.48 349.208C1071.45 347.48 1070.82 346.104 1069.61 345.08C1068.39 344.024 1066.9 343.496 1065.14 343.496C1063.48 343.496 1062.07 344.008 1060.92 345.032C1059.8 346.024 1059.11 347.416 1058.85 349.208H1071.48ZM1081.62 351.608C1081.62 348.92 1082.14 346.536 1083.2 344.456C1084.29 342.376 1085.74 340.776 1087.57 339.656C1089.42 338.536 1091.49 337.976 1093.76 337.976C1095.74 337.976 1097.47 338.376 1098.94 339.176C1100.45 339.976 1101.65 340.984 1102.54 342.2V338.408H1109.31V365H1102.54V361.112C1101.68 362.36 1100.48 363.4 1098.94 364.232C1097.44 365.032 1095.7 365.432 1093.71 365.432C1091.47 365.432 1089.42 364.856 1087.57 363.704C1085.74 362.552 1084.29 360.936 1083.2 358.856C1082.14 356.744 1081.62 354.328 1081.62 351.608ZM1102.54 351.704C1102.54 350.072 1102.22 348.68 1101.58 347.528C1100.94 346.344 1100.08 345.448 1098.99 344.84C1097.9 344.2 1096.74 343.88 1095.49 343.88C1094.24 343.88 1093.09 344.184 1092.03 344.792C1090.98 345.4 1090.11 346.296 1089.44 347.48C1088.8 348.632 1088.48 350.008 1088.48 351.608C1088.48 353.208 1088.8 354.616 1089.44 355.832C1090.11 357.016 1090.98 357.928 1092.03 358.568C1093.12 359.208 1094.27 359.528 1095.49 359.528C1096.74 359.528 1097.9 359.224 1098.99 358.616C1100.08 357.976 1100.94 357.08 1101.58 355.928C1102.22 354.744 1102.54 353.336 1102.54 351.704ZM1114.15 351.608C1114.15 348.92 1114.67 346.536 1115.73 344.456C1116.82 342.376 1118.29 340.776 1120.15 339.656C1122 338.536 1124.07 337.976 1126.34 337.976C1128.07 337.976 1129.71 338.36 1131.28 339.128C1132.85 339.864 1134.1 340.856 1135.03 342.104V329.48H1141.84V365H1135.03V361.064C1134.19 362.376 1133.03 363.432 1131.52 364.232C1130.02 365.032 1128.27 365.432 1126.29 365.432C1124.05 365.432 1122 364.856 1120.15 363.704C1118.29 362.552 1116.82 360.936 1115.73 358.856C1114.67 356.744 1114.15 354.328 1114.15 351.608ZM1135.07 351.704C1135.07 350.072 1134.75 348.68 1134.11 347.528C1133.47 346.344 1132.61 345.448 1131.52 344.84C1130.43 344.2 1129.27 343.88 1128.02 343.88C1126.77 343.88 1125.62 344.184 1124.56 344.792C1123.51 345.4 1122.64 346.296 1121.97 347.48C1121.33 348.632 1121.01 350.008 1121.01 351.608C1121.01 353.208 1121.33 354.616 1121.97 355.832C1122.64 357.016 1123.51 357.928 1124.56 358.568C1125.65 359.208 1126.8 359.528 1128.02 359.528C1129.27 359.528 1130.43 359.224 1131.52 358.616C1132.61 357.976 1133.47 357.08 1134.11 355.928C1134.75 354.744 1135.07 353.336 1135.07 351.704ZM1173.13 351.128C1173.13 352.088 1173.06 352.952 1172.93 353.72H1153.49C1153.65 355.64 1154.33 357.144 1155.51 358.232C1156.69 359.32 1158.15 359.864 1159.88 359.864C1162.37 359.864 1164.15 358.792 1165.21 356.648H1172.45C1171.69 359.208 1170.21 361.32 1168.04 362.984C1165.86 364.616 1163.19 365.432 1160.02 365.432C1157.46 365.432 1155.16 364.872 1153.11 363.752C1151.09 362.6 1149.51 360.984 1148.36 358.904C1147.24 356.824 1146.68 354.424 1146.68 351.704C1146.68 348.952 1147.24 346.536 1148.36 344.456C1149.48 342.376 1151.05 340.776 1153.06 339.656C1155.08 338.536 1157.4 337.976 1160.02 337.976C1162.55 337.976 1164.81 338.52 1166.79 339.608C1168.81 340.696 1170.36 342.248 1171.45 344.264C1172.57 346.248 1173.13 348.536 1173.13 351.128ZM1166.17 349.208C1166.13 347.48 1165.51 346.104 1164.29 345.08C1163.08 344.024 1161.59 343.496 1159.83 343.496C1158.17 343.496 1156.76 344.008 1155.61 345.032C1154.49 346.024 1153.8 347.416 1153.54 349.208H1166.17ZM1184.75 342.536C1185.61 341.128 1186.73 340.024 1188.11 339.224C1189.52 338.424 1191.12 338.024 1192.91 338.024V345.08H1191.13C1189.02 345.08 1187.42 345.576 1186.33 346.568C1185.28 347.56 1184.75 349.288 1184.75 351.752V365H1178.03V338.408H1184.75V342.536Z" fill="black"/>
<path d="M1026.94 419.252C1025.26 419.252 1023.75 418.964 1022.41 418.388C1021.06 417.788 1020.01 416.948 1019.24 415.868C1018.47 414.788 1018.09 413.528 1018.09 412.088H1022.48C1022.58 413.168 1023 414.056 1023.74 414.752C1024.51 415.448 1025.58 415.796 1026.94 415.796C1028.36 415.796 1029.46 415.46 1030.26 414.788C1031.05 414.092 1031.44 413.204 1031.44 412.124C1031.44 411.284 1031.19 410.6 1030.69 410.072C1030.21 409.544 1029.6 409.136 1028.85 408.848C1028.13 408.56 1027.12 408.248 1025.83 407.912C1024.2 407.48 1022.86 407.048 1021.83 406.616C1020.82 406.16 1019.96 405.464 1019.24 404.528C1018.52 403.592 1018.16 402.344 1018.16 400.784C1018.16 399.344 1018.52 398.084 1019.24 397.004C1019.96 395.924 1020.97 395.096 1022.26 394.52C1023.56 393.944 1025.06 393.656 1026.76 393.656C1029.19 393.656 1031.17 394.268 1032.7 395.492C1034.26 396.692 1035.13 398.348 1035.3 400.46H1030.76C1030.69 399.548 1030.26 398.768 1029.46 398.12C1028.67 397.472 1027.63 397.148 1026.33 397.148C1025.16 397.148 1024.2 397.448 1023.45 398.048C1022.71 398.648 1022.34 399.512 1022.34 400.64C1022.34 401.408 1022.56 402.044 1023.02 402.548C1023.5 403.028 1024.1 403.412 1024.82 403.7C1025.54 403.988 1026.52 404.3 1027.77 404.636C1029.43 405.092 1030.77 405.548 1031.8 406.004C1032.86 406.46 1033.75 407.168 1034.47 408.128C1035.21 409.064 1035.58 410.324 1035.58 411.908C1035.58 413.18 1035.24 414.38 1034.54 415.508C1033.87 416.636 1032.87 417.548 1031.55 418.244C1030.26 418.916 1028.72 419.252 1026.94 419.252ZM1058.39 399.164V419H1054.29V416.66C1053.64 417.476 1052.79 418.124 1051.73 418.604C1050.7 419.06 1049.59 419.288 1048.42 419.288C1046.86 419.288 1045.45 418.964 1044.21 418.316C1042.98 417.668 1042.01 416.708 1041.29 415.436C1040.59 414.164 1040.25 412.628 1040.25 410.828V399.164H1044.31V410.216C1044.31 411.992 1044.76 413.36 1045.65 414.32C1046.53 415.256 1047.75 415.724 1049.28 415.724C1050.82 415.724 1052.03 415.256 1052.92 414.32C1053.83 413.36 1054.29 411.992 1054.29 410.216V399.164H1058.39ZM1067.91 402.116C1068.61 401.156 1069.55 400.376 1070.75 399.776C1071.98 399.152 1073.33 398.84 1074.82 398.84C1076.57 398.84 1078.16 399.26 1079.57 400.1C1080.99 400.94 1082.11 402.14 1082.92 403.7C1083.74 405.236 1084.15 407 1084.15 408.992C1084.15 410.984 1083.74 412.772 1082.92 414.356C1082.11 415.916 1080.98 417.14 1079.54 418.028C1078.12 418.892 1076.55 419.324 1074.82 419.324C1073.29 419.324 1071.92 419.024 1070.72 418.424C1069.54 417.824 1068.61 417.056 1067.91 416.12V419H1063.81V392.36H1067.91V402.116ZM1079.97 408.992C1079.97 407.624 1079.68 406.448 1079.11 405.464C1078.55 404.456 1077.81 403.7 1076.87 403.196C1075.96 402.668 1074.98 402.404 1073.92 402.404C1072.89 402.404 1071.91 402.668 1070.97 403.196C1070.06 403.724 1069.31 404.492 1068.74 405.5C1068.19 406.508 1067.91 407.696 1067.91 409.064C1067.91 410.432 1068.19 411.632 1068.74 412.664C1069.31 413.672 1070.06 414.44 1070.97 414.968C1071.91 415.496 1072.89 415.76 1073.92 415.76C1074.98 415.76 1075.96 415.496 1076.87 414.968C1077.81 414.416 1078.55 413.624 1079.11 412.592C1079.68 411.56 1079.97 410.36 1079.97 408.992ZM1092.99 402.512V413.492C1092.99 414.236 1093.16 414.776 1093.5 415.112C1093.86 415.424 1094.46 415.58 1095.3 415.58H1097.82V419H1094.58C1092.73 419 1091.31 418.568 1090.33 417.704C1089.34 416.84 1088.85 415.436 1088.85 413.492V402.512H1086.51V399.164H1088.85V394.232H1092.99V399.164H1097.82V402.512H1092.99ZM1103.69 396.536C1102.94 396.536 1102.32 396.284 1101.81 395.78C1101.31 395.276 1101.06 394.652 1101.06 393.908C1101.06 393.164 1101.31 392.54 1101.81 392.036C1102.32 391.532 1102.94 391.28 1103.69 391.28C1104.41 391.28 1105.02 391.532 1105.52 392.036C1106.03 392.54 1106.28 393.164 1106.28 393.908C1106.28 394.652 1106.03 395.276 1105.52 395.78C1105.02 396.284 1104.41 396.536 1103.69 396.536ZM1105.7 399.164V419H1101.6V399.164H1105.7ZM1115.88 402.512V413.492C1115.88 414.236 1116.05 414.776 1116.38 415.112C1116.74 415.424 1117.34 415.58 1118.18 415.58H1120.7V419H1117.46C1115.61 419 1114.2 418.568 1113.21 417.704C1112.23 416.84 1111.74 415.436 1111.74 413.492V402.512H1109.4V399.164H1111.74V394.232H1115.88V399.164H1120.7V402.512H1115.88ZM1128.59 392.36V419H1124.49V392.36H1128.59ZM1152.16 408.596C1152.16 409.34 1152.11 410.012 1152.01 410.612H1136.86C1136.98 412.196 1137.57 413.468 1138.62 414.428C1139.68 415.388 1140.97 415.868 1142.51 415.868C1144.72 415.868 1146.28 414.944 1147.19 413.096H1151.62C1151.02 414.92 1149.93 416.42 1148.34 417.596C1146.78 418.748 1144.84 419.324 1142.51 419.324C1140.61 419.324 1138.91 418.904 1137.4 418.064C1135.91 417.2 1134.73 416 1133.87 414.464C1133.03 412.904 1132.61 411.104 1132.61 409.064C1132.61 407.024 1133.02 405.236 1133.83 403.7C1134.67 402.14 1135.84 400.94 1137.33 400.1C1138.84 399.26 1140.57 398.84 1142.51 398.84C1144.38 398.84 1146.05 399.248 1147.51 400.064C1148.98 400.88 1150.12 402.032 1150.93 403.52C1151.75 404.984 1152.16 406.676 1152.16 408.596ZM1147.87 407.3C1147.85 405.788 1147.31 404.576 1146.25 403.664C1145.2 402.752 1143.89 402.296 1142.33 402.296C1140.91 402.296 1139.7 402.752 1138.69 403.664C1137.69 404.552 1137.09 405.764 1136.89 407.3H1147.87Z" fill="black" fill-opacity="0.8"/>
<path d="M1030.65 460.004C1032.07 460.268 1033.27 460.988 1034.25 462.164C1035.24 463.34 1035.73 464.708 1035.73 466.268C1035.73 467.54 1035.4 468.692 1034.76 469.724C1034.13 470.732 1033.21 471.536 1031.98 472.136C1030.76 472.712 1029.3 473 1027.59 473H1018.88V447.836H1027.34C1029.88 447.836 1031.82 448.424 1033.14 449.6C1034.48 450.776 1035.15 452.3 1035.15 454.172C1035.15 455.732 1034.73 457.004 1033.89 457.988C1033.05 458.948 1031.97 459.62 1030.65 460.004ZM1021.4 458.96H1027.27C1028.97 458.96 1030.28 458.564 1031.19 457.772C1032.13 456.956 1032.6 455.84 1032.6 454.424C1032.6 453.032 1032.13 451.94 1031.19 451.148C1030.28 450.356 1028.94 449.96 1027.16 449.96H1021.4V458.96ZM1027.41 470.876C1029.24 470.876 1030.65 470.444 1031.66 469.58C1032.69 468.716 1033.21 467.528 1033.21 466.016C1033.21 464.504 1032.67 463.304 1031.59 462.416C1030.53 461.504 1029.1 461.048 1027.3 461.048H1021.4V470.876H1027.41ZM1048.96 473.288C1047.12 473.288 1045.45 472.88 1043.96 472.064C1042.5 471.224 1041.33 470.048 1040.47 468.536C1039.63 467 1039.21 465.212 1039.21 463.172C1039.21 461.132 1039.64 459.356 1040.5 457.844C1041.37 456.308 1042.54 455.132 1044.03 454.316C1045.52 453.476 1047.19 453.056 1049.04 453.056C1050.88 453.056 1052.55 453.476 1054.04 454.316C1055.55 455.132 1056.73 456.308 1057.57 457.844C1058.43 459.356 1058.86 461.132 1058.86 463.172C1058.86 465.188 1058.43 466.964 1057.57 468.5C1056.7 470.036 1055.52 471.224 1054 472.064C1052.49 472.88 1050.81 473.288 1048.96 473.288ZM1048.96 471.092C1050.26 471.092 1051.46 470.804 1052.56 470.228C1053.67 469.628 1054.56 468.74 1055.23 467.564C1055.92 466.364 1056.27 464.9 1056.27 463.172C1056.27 461.444 1055.94 459.992 1055.26 458.816C1054.59 457.616 1053.7 456.728 1052.6 456.152C1051.5 455.552 1050.3 455.252 1049 455.252C1047.7 455.252 1046.5 455.552 1045.4 456.152C1044.3 456.728 1043.41 457.616 1042.74 458.816C1042.09 459.992 1041.76 461.444 1041.76 463.172C1041.76 464.9 1042.09 466.364 1042.74 467.564C1043.41 468.74 1044.28 469.628 1045.36 470.228C1046.47 470.804 1047.67 471.092 1048.96 471.092ZM1062.31 463.136C1062.31 461.12 1062.71 459.356 1063.53 457.844C1064.35 456.308 1065.46 455.132 1066.88 454.316C1068.32 453.476 1069.94 453.056 1071.74 453.056C1073.47 453.056 1075.03 453.476 1076.42 454.316C1077.81 455.156 1078.83 456.248 1079.48 457.592V446.36H1082V473H1079.48V468.608C1078.88 469.976 1077.89 471.104 1076.53 471.992C1075.16 472.856 1073.55 473.288 1071.7 473.288C1069.9 473.288 1068.28 472.868 1066.84 472.028C1065.43 471.188 1064.31 470 1063.49 468.464C1062.7 466.928 1062.31 465.152 1062.31 463.136ZM1079.48 463.172C1079.48 461.588 1079.15 460.196 1078.51 458.996C1077.86 457.796 1076.97 456.872 1075.84 456.224C1074.74 455.576 1073.51 455.252 1072.17 455.252C1070.78 455.252 1069.53 455.564 1068.43 456.188C1067.32 456.812 1066.45 457.724 1065.8 458.924C1065.17 460.1 1064.86 461.504 1064.86 463.136C1064.86 464.744 1065.17 466.16 1065.8 467.384C1066.45 468.584 1067.32 469.508 1068.43 470.156C1069.53 470.78 1070.78 471.092 1072.17 471.092C1073.51 471.092 1074.74 470.768 1075.84 470.12C1076.97 469.472 1077.86 468.548 1078.51 467.348C1079.15 466.148 1079.48 464.756 1079.48 463.172ZM1103.95 453.344L1092.29 482.252H1089.66L1093.48 472.892L1085.41 453.344H1088.18L1094.88 470.12L1101.36 453.344H1103.95Z" fill="black" fill-opacity="0.6"/>
<path d="M1385.44 358.796C1389.33 356.132 1392.44 353.528 1394.76 350.984C1397.12 348.416 1398.29 346.04 1398.29 343.856C1398.29 342.56 1397.97 341.528 1397.32 340.76C1396.7 339.992 1395.68 339.608 1394.26 339.608C1392.8 339.608 1391.69 340.088 1390.95 341.048C1390.2 341.984 1389.78 343.328 1389.69 345.08H1385.69C1385.86 342.176 1386.75 339.956 1388.36 338.42C1389.99 336.884 1392.06 336.116 1394.58 336.116C1397.06 336.116 1398.99 336.776 1400.38 338.096C1401.8 339.392 1402.5 341.192 1402.5 343.496C1402.5 345.344 1401.93 347.216 1400.78 349.112C1399.65 351.008 1398.21 352.76 1396.46 354.368C1394.7 355.952 1392.89 357.32 1391.02 358.472H1403.08V361.82H1385.44V358.796ZM1406.3 349.112C1406.3 353.168 1407.02 356.348 1408.46 358.652C1409.9 360.932 1412.3 362.072 1415.66 362.072C1419.02 362.072 1421.42 360.92 1422.86 358.616C1424.3 356.312 1425.02 353.144 1425.02 349.112C1425.02 345.104 1424.3 341.96 1422.86 339.68C1421.42 337.376 1419.02 336.224 1415.66 336.224C1412.3 336.224 1409.9 337.364 1408.46 339.644C1407.02 341.924 1406.3 345.08 1406.3 349.112ZM1420.91 349.112C1420.91 352.04 1420.55 354.284 1419.83 355.844C1419.11 357.404 1417.72 358.184 1415.66 358.184C1413.57 358.184 1412.17 357.404 1411.45 355.844C1410.73 354.284 1410.37 352.04 1410.37 349.112C1410.37 346.208 1410.73 343.988 1411.45 342.452C1412.17 340.916 1413.57 340.148 1415.66 340.148C1417.72 340.148 1419.11 340.928 1419.83 342.488C1420.55 344.024 1420.91 346.232 1420.91 349.112ZM1440.72 341.912C1442.44 341.912 1443.98 342.32 1445.32 343.136C1446.69 343.952 1447.76 345.128 1448.53 346.664C1449.3 348.2 1449.68 350 1449.68 352.064C1449.68 354.152 1449.3 355.964 1448.53 357.5C1447.76 359.036 1446.69 360.212 1445.32 361.028C1443.98 361.844 1442.44 362.252 1440.72 362.252C1438.92 362.252 1437.38 361.808 1436.11 360.92C1434.84 360.032 1433.95 358.856 1433.44 357.392V371.432H1429.34V342.164H1433.44V346.772C1433.95 345.308 1434.84 344.132 1436.11 343.244C1437.38 342.356 1438.92 341.912 1440.72 341.912ZM1439.46 345.512C1438.3 345.512 1437.27 345.788 1436.36 346.34C1435.45 346.868 1434.73 347.636 1434.2 348.644C1433.67 349.628 1433.41 350.768 1433.41 352.064C1433.41 353.384 1433.67 354.536 1434.2 355.52C1434.73 356.504 1435.45 357.272 1436.36 357.824C1437.27 358.352 1438.3 358.616 1439.46 358.616C1441.28 358.616 1442.74 358.04 1443.85 356.888C1444.95 355.712 1445.5 354.104 1445.5 352.064C1445.5 350.048 1444.95 348.452 1443.85 347.276C1442.74 346.1 1441.28 345.512 1439.46 345.512ZM1463.6 358.436V362H1461.08C1458.97 362 1457.36 361.496 1456.26 360.488C1455.18 359.456 1454.64 357.752 1454.64 355.376V345.656H1451.8V342.164H1454.64V337.232H1458.78V342.164H1463.57V345.656H1458.78V355.448C1458.78 356.576 1458.98 357.356 1459.39 357.788C1459.82 358.22 1460.57 358.436 1461.62 358.436H1463.6Z" fill="black"/>
<path d="M1384.47 394.436V390.584H1392.6V416H1388.28V394.436H1384.47ZM1396.3 410.528V407.072L1408.94 390.368H1413.33V406.928H1416.89V410.528H1413.33V416H1409.19V410.528H1396.3ZM1409.48 395.264L1400.55 406.928H1409.48V395.264ZM1431.75 395.912C1433.48 395.912 1435.01 396.32 1436.36 397.136C1437.73 397.952 1438.79 399.128 1439.56 400.664C1440.33 402.2 1440.71 404 1440.71 406.064C1440.71 408.152 1440.33 409.964 1439.56 411.5C1438.79 413.036 1437.73 414.212 1436.36 415.028C1435.01 415.844 1433.48 416.252 1431.75 416.252C1429.95 416.252 1428.41 415.808 1427.14 414.92C1425.87 414.032 1424.98 412.856 1424.48 411.392V425.432H1420.37V396.164H1424.48V400.772C1424.98 399.308 1425.87 398.132 1427.14 397.244C1428.41 396.356 1429.95 395.912 1431.75 395.912ZM1430.49 399.512C1429.34 399.512 1428.31 399.788 1427.39 400.34C1426.48 400.868 1425.76 401.636 1425.23 402.644C1424.71 403.628 1424.44 404.768 1424.44 406.064C1424.44 407.384 1424.71 408.536 1425.23 409.52C1425.76 410.504 1426.48 411.272 1427.39 411.824C1428.31 412.352 1429.34 412.616 1430.49 412.616C1432.31 412.616 1433.78 412.04 1434.88 410.888C1435.99 409.712 1436.54 408.104 1436.54 406.064C1436.54 404.048 1435.99 402.452 1434.88 401.276C1433.78 400.1 1432.31 399.512 1430.49 399.512ZM1454.64 412.436V416H1452.12C1450.01 416 1448.4 415.496 1447.3 414.488C1446.22 413.456 1445.68 411.752 1445.68 409.376V399.656H1442.83V396.164H1445.68V391.232H1449.82V396.164H1454.6V399.656H1449.82V409.448C1449.82 410.576 1450.02 411.356 1450.43 411.788C1450.86 412.22 1451.6 412.436 1452.66 412.436H1454.64Z" fill="black" fill-opacity="0.8"/>
<path d="M1384.47 448.436V444.584H1392.6V470H1388.28V448.436H1384.47ZM1396.48 466.796C1400.37 464.132 1403.48 461.528 1405.8 458.984C1408.16 456.416 1409.33 454.04 1409.33 451.856C1409.33 450.56 1409.01 449.528 1408.36 448.76C1407.74 447.992 1406.72 447.608 1405.3 447.608C1403.84 447.608 1402.73 448.088 1401.99 449.048C1401.24 449.984 1400.82 451.328 1400.73 453.08H1396.73C1396.9 450.176 1397.79 447.956 1399.4 446.42C1401.03 444.884 1403.1 444.116 1405.62 444.116C1408.1 444.116 1410.03 444.776 1411.42 446.096C1412.84 447.392 1413.54 449.192 1413.54 451.496C1413.54 453.344 1412.97 455.216 1411.82 457.112C1410.69 459.008 1409.25 460.76 1407.5 462.368C1405.74 463.952 1403.93 465.32 1402.06 466.472H1414.12V469.82H1396.48V466.796ZM1429.32 449.912C1431.05 449.912 1432.59 450.32 1433.93 451.136C1435.3 451.952 1436.37 453.128 1437.14 454.664C1437.9 456.2 1438.29 458 1438.29 460.064C1438.29 462.152 1437.9 463.964 1437.14 465.5C1436.37 467.036 1435.3 468.212 1433.93 469.028C1432.59 469.844 1431.05 470.252 1429.32 470.252C1427.52 470.252 1425.99 469.808 1424.72 468.92C1423.44 468.032 1422.56 466.856 1422.05 465.392V479.432H1417.95V450.164H1422.05V454.772C1422.56 453.308 1423.44 452.132 1424.72 451.244C1425.99 450.356 1427.52 449.912 1429.32 449.912ZM1428.06 453.512C1426.91 453.512 1425.88 453.788 1424.97 454.34C1424.06 454.868 1423.34 455.636 1422.81 456.644C1422.28 457.628 1422.02 458.768 1422.02 460.064C1422.02 461.384 1422.28 462.536 1422.81 463.52C1423.34 464.504 1424.06 465.272 1424.97 465.824C1425.88 466.352 1426.91 466.616 1428.06 466.616C1429.89 466.616 1431.35 466.04 1432.46 464.888C1433.56 463.712 1434.11 462.104 1434.11 460.064C1434.11 458.048 1433.56 456.452 1432.46 455.276C1431.35 454.1 1429.89 453.512 1428.06 453.512ZM1452.21 466.436V470H1449.69C1447.58 470 1445.97 469.496 1444.87 468.488C1443.79 467.456 1443.25 465.752 1443.25 463.376V453.656H1440.41V450.164H1443.25V445.232H1447.39V450.164H1452.18V453.656H1447.39V463.448C1447.39 464.576 1447.59 465.356 1448 465.788C1448.43 466.22 1449.18 466.436 1450.23 466.436H1452.21Z" fill="black" fill-opacity="0.6"/>
<path d="M147.321 305.514C148.364 305.708 149.22 306.229 149.892 307.077C150.563 307.925 150.898 308.897 150.898 309.992C150.898 310.981 150.651 311.856 150.157 312.615C149.68 313.357 148.982 313.94 148.063 314.364C147.145 314.788 146.058 315 144.804 315H136.828V296.505H144.46C145.714 296.505 146.791 296.708 147.692 297.114C148.611 297.521 149.3 298.086 149.759 298.81C150.236 299.534 150.474 300.356 150.474 301.274C150.474 302.352 150.183 303.253 149.6 303.977C149.035 304.701 148.275 305.214 147.321 305.514ZM140.538 304.136H143.93C144.813 304.136 145.493 303.942 145.97 303.553C146.447 303.147 146.685 302.573 146.685 301.831C146.685 301.089 146.447 300.515 145.97 300.108C145.493 299.702 144.813 299.499 143.93 299.499H140.538V304.136ZM144.274 311.979C145.175 311.979 145.873 311.767 146.367 311.343C146.88 310.919 147.136 310.319 147.136 309.542C147.136 308.747 146.871 308.128 146.341 307.687C145.811 307.227 145.096 306.998 144.195 306.998H140.538V311.979H144.274ZM160.373 315.238C158.96 315.238 157.688 314.929 156.558 314.311C155.427 313.675 154.535 312.783 153.881 311.635C153.246 310.487 152.928 309.162 152.928 307.66C152.928 306.159 153.254 304.834 153.908 303.686C154.579 302.537 155.489 301.654 156.637 301.036C157.785 300.4 159.066 300.082 160.479 300.082C161.893 300.082 163.173 300.4 164.321 301.036C165.47 301.654 166.371 302.537 167.024 303.686C167.695 304.834 168.031 306.159 168.031 307.66C168.031 309.162 167.687 310.487 166.998 311.635C166.326 312.783 165.408 313.675 164.242 314.311C163.094 314.929 161.804 315.238 160.373 315.238ZM160.373 312.006C161.045 312.006 161.672 311.847 162.255 311.529C162.855 311.193 163.332 310.699 163.685 310.045C164.039 309.391 164.215 308.596 164.215 307.66C164.215 306.265 163.844 305.196 163.103 304.454C162.378 303.694 161.486 303.315 160.426 303.315C159.366 303.315 158.474 303.694 157.75 304.454C157.043 305.196 156.69 306.265 156.69 307.66C156.69 309.056 157.035 310.133 157.724 310.893C158.43 311.635 159.313 312.006 160.373 312.006ZM174.462 295.392V315H170.752V295.392H174.462ZM177.173 307.607C177.173 306.123 177.465 304.807 178.047 303.659C178.648 302.511 179.461 301.628 180.485 301.009C181.51 300.391 182.649 300.082 183.903 300.082C184.857 300.082 185.767 300.294 186.633 300.718C187.498 301.124 188.187 301.672 188.699 302.361V295.392H192.462V315H188.699V312.827C188.24 313.551 187.595 314.134 186.765 314.576C185.935 315.018 184.972 315.238 183.877 315.238C182.64 315.238 181.51 314.921 180.485 314.285C179.461 313.649 178.648 312.757 178.047 311.608C177.465 310.442 177.173 309.109 177.173 307.607ZM188.726 307.66C188.726 306.759 188.549 305.991 188.196 305.355C187.843 304.701 187.366 304.207 186.765 303.871C186.165 303.518 185.52 303.341 184.831 303.341C184.142 303.341 183.506 303.509 182.923 303.845C182.34 304.18 181.863 304.675 181.492 305.328C181.139 305.964 180.962 306.724 180.962 307.607C180.962 308.49 181.139 309.268 181.492 309.939C181.863 310.593 182.34 311.096 182.923 311.449C183.524 311.803 184.16 311.979 184.831 311.979C185.52 311.979 186.165 311.811 186.765 311.476C187.366 311.123 187.843 310.628 188.196 309.992C188.549 309.338 188.726 308.561 188.726 307.66Z" fill="black"/>
<path d="M153.437 358.102H143.124L141.418 363.036H135.965L145.276 337.106H151.322L160.634 363.036H155.143L153.437 358.102ZM152.027 353.948L148.28 343.115L144.534 353.948H152.027ZM162.779 352.686C162.779 350.609 163.187 348.766 164.003 347.159C164.844 345.551 165.969 344.315 167.378 343.449C168.813 342.584 170.408 342.151 172.164 342.151C173.697 342.151 175.033 342.46 176.17 343.078C177.333 343.697 178.26 344.476 178.953 345.415V342.485H184.183V363.036H178.953V360.031C178.285 360.996 177.357 361.8 176.17 362.443C175.008 363.061 173.66 363.37 172.127 363.37C170.396 363.37 168.813 362.925 167.378 362.035C165.969 361.144 164.844 359.895 164.003 358.288C163.187 356.656 162.779 354.788 162.779 352.686ZM178.953 352.76C178.953 351.499 178.705 350.423 178.211 349.533C177.716 348.618 177.048 347.926 176.207 347.456C175.367 346.961 174.464 346.714 173.499 346.714C172.535 346.714 171.645 346.949 170.828 347.419C170.012 347.888 169.345 348.581 168.825 349.496C168.331 350.386 168.083 351.45 168.083 352.686C168.083 353.923 168.331 355.011 168.825 355.951C169.345 356.866 170.012 357.571 170.828 358.065C171.669 358.56 172.56 358.807 173.499 358.807C174.464 358.807 175.367 358.572 176.207 358.102C177.048 357.608 177.716 356.915 178.211 356.025C178.705 355.11 178.953 354.022 178.953 352.76ZM203.946 349.756C205.405 350.028 206.604 350.757 207.544 351.944C208.484 353.131 208.954 354.492 208.954 356.025C208.954 357.41 208.607 358.634 207.915 359.697C207.247 360.736 206.27 361.552 204.984 362.146C203.698 362.739 202.177 363.036 200.421 363.036H189.255V337.143H199.939C201.695 337.143 203.204 337.427 204.465 337.996C205.751 338.565 206.715 339.356 207.358 340.37C208.026 341.384 208.36 342.534 208.36 343.82C208.36 345.329 207.952 346.59 207.136 347.604C206.344 348.618 205.281 349.335 203.946 349.756ZM194.449 347.827H199.197C200.434 347.827 201.386 347.555 202.054 347.011C202.721 346.442 203.055 345.638 203.055 344.599C203.055 343.561 202.721 342.757 202.054 342.188C201.386 341.619 200.434 341.335 199.197 341.335H194.449V347.827ZM199.68 358.807C200.941 358.807 201.918 358.51 202.61 357.917C203.327 357.323 203.686 356.482 203.686 355.394C203.686 354.281 203.315 353.416 202.573 352.798C201.831 352.155 200.83 351.833 199.568 351.833H194.449V358.807H199.68ZM218.286 345.49C218.954 344.5 219.869 343.697 221.031 343.078C222.218 342.46 223.566 342.151 225.075 342.151C226.831 342.151 228.414 342.584 229.823 343.449C231.258 344.315 232.383 345.551 233.199 347.159C234.04 348.742 234.46 350.584 234.46 352.686C234.46 354.788 234.04 356.656 233.199 358.288C232.383 359.895 231.258 361.144 229.823 362.035C228.414 362.925 226.831 363.37 225.075 363.37C223.542 363.37 222.194 363.073 221.031 362.48C219.894 361.861 218.979 361.07 218.286 360.106V363.036H213.093V335.585H218.286V345.49ZM229.155 352.686C229.155 351.45 228.896 350.386 228.376 349.496C227.882 348.581 227.214 347.888 226.373 347.419C225.557 346.949 224.667 346.714 223.702 346.714C222.763 346.714 221.872 346.961 221.031 347.456C220.215 347.926 219.548 348.618 219.028 349.533C218.534 350.448 218.286 351.524 218.286 352.76C218.286 353.997 218.534 355.073 219.028 355.988C219.548 356.903 220.215 357.608 221.031 358.102C221.872 358.572 222.763 358.807 223.702 358.807C224.667 358.807 225.557 358.56 226.373 358.065C227.214 357.571 227.882 356.866 228.376 355.951C228.896 355.036 229.155 353.948 229.155 352.686ZM236.973 350.052C236.973 347.505 237.542 345.23 238.679 343.227C239.842 341.199 241.412 339.628 243.391 338.515C245.394 337.378 247.632 336.809 250.105 336.809C252.999 336.809 255.533 337.551 257.71 339.035C259.886 340.519 261.407 342.571 262.273 345.193H256.3C255.707 343.956 254.866 343.029 253.778 342.411C252.714 341.792 251.478 341.483 250.068 341.483C248.559 341.483 247.212 341.842 246.024 342.559C244.862 343.251 243.947 344.241 243.279 345.527C242.636 346.813 242.315 348.321 242.315 350.052C242.315 351.759 242.636 353.267 243.279 354.578C243.947 355.864 244.862 356.866 246.024 357.583C247.212 358.275 248.559 358.622 250.068 358.622C251.478 358.622 252.714 358.313 253.778 357.694C254.866 357.051 255.707 356.111 256.3 354.875H262.273C261.407 357.521 259.886 359.586 257.71 361.07C255.558 362.529 253.023 363.259 250.105 363.259C247.632 363.259 245.394 362.702 243.391 361.589C241.412 360.452 239.842 358.881 238.679 356.878C237.542 354.875 236.973 352.6 236.973 350.052ZM265.373 352.76C265.373 350.634 265.806 348.779 266.671 347.196C267.537 345.588 268.736 344.352 270.27 343.486C271.803 342.596 273.559 342.151 275.537 342.151C278.085 342.151 280.187 342.794 281.844 344.08C283.526 345.341 284.651 347.122 285.22 349.422H279.618C279.321 348.531 278.814 347.839 278.097 347.344C277.405 346.825 276.539 346.565 275.5 346.565C274.017 346.565 272.842 347.109 271.976 348.198C271.111 349.261 270.678 350.782 270.678 352.76C270.678 354.714 271.111 356.235 271.976 357.323C272.842 358.387 274.017 358.918 275.5 358.918C277.603 358.918 278.975 357.979 279.618 356.099H285.22C284.651 358.325 283.526 360.093 281.844 361.404C280.162 362.715 278.06 363.37 275.537 363.37C273.559 363.37 271.803 362.937 270.27 362.072C268.736 361.181 267.537 359.945 266.671 358.362C265.806 356.754 265.373 354.887 265.373 352.76ZM298.076 337.143C300.796 337.143 303.183 337.675 305.235 338.738C307.313 339.801 308.908 341.322 310.021 343.301C311.158 345.255 311.727 347.53 311.727 350.127C311.727 352.723 311.158 354.999 310.021 356.952C308.908 358.881 307.313 360.378 305.235 361.441C303.183 362.504 300.796 363.036 298.076 363.036H289.024V337.143H298.076ZM297.89 358.622C300.611 358.622 302.713 357.88 304.197 356.396C305.681 354.912 306.423 352.822 306.423 350.127C306.423 347.431 305.681 345.329 304.197 343.82C302.713 342.287 300.611 341.52 297.89 341.52H294.218V358.622H297.89ZM314.279 352.686C314.279 350.609 314.687 348.766 315.504 347.159C316.344 345.551 317.482 344.315 318.916 343.449C320.351 342.584 321.946 342.151 323.702 342.151C325.037 342.151 326.311 342.448 327.523 343.041C328.735 343.61 329.699 344.377 330.416 345.341V335.585H335.684V363.036H330.416V359.994C329.773 361.008 328.871 361.824 327.708 362.443C326.546 363.061 325.198 363.37 323.665 363.37C321.934 363.37 320.351 362.925 318.916 362.035C317.482 361.144 316.344 359.895 315.504 358.288C314.687 356.656 314.279 354.788 314.279 352.686ZM330.453 352.76C330.453 351.499 330.206 350.423 329.711 349.533C329.217 348.618 328.549 347.926 327.708 347.456C326.867 346.961 325.965 346.714 325 346.714C324.036 346.714 323.145 346.949 322.329 347.419C321.513 347.888 320.845 348.581 320.326 349.496C319.832 350.386 319.584 351.45 319.584 352.686C319.584 353.923 319.832 355.011 320.326 355.951C320.845 356.866 321.513 357.571 322.329 358.065C323.17 358.56 324.06 358.807 325 358.807C325.965 358.807 326.867 358.572 327.708 358.102C328.549 357.608 329.217 356.915 329.711 356.025C330.206 355.11 330.453 354.022 330.453 352.76Z" fill="black"/>
<path d="M411.819 296.584V315H408.798V302.387L403.181 315H401.087L395.444 302.387V315H392.423V296.584H395.682L402.147 311.025L408.586 296.584H411.819ZM429.17 307.342C429.17 307.89 429.135 308.384 429.064 308.826H417.909C417.997 309.992 418.43 310.928 419.207 311.635C419.985 312.341 420.939 312.695 422.069 312.695C423.694 312.695 424.842 312.015 425.514 310.654H428.773C428.331 311.997 427.528 313.101 426.362 313.967C425.213 314.815 423.783 315.238 422.069 315.238C420.674 315.238 419.419 314.929 418.306 314.311C417.211 313.675 416.346 312.792 415.71 311.661C415.091 310.513 414.782 309.188 414.782 307.687C414.782 306.185 415.083 304.869 415.683 303.739C416.301 302.59 417.158 301.707 418.253 301.089C419.366 300.471 420.638 300.161 422.069 300.161C423.447 300.161 424.675 300.462 425.752 301.062C426.83 301.663 427.669 302.511 428.269 303.606C428.87 304.684 429.17 305.929 429.17 307.342ZM426.017 306.388C426 305.275 425.602 304.383 424.825 303.712C424.048 303.041 423.085 302.705 421.937 302.705C420.894 302.705 420.002 303.041 419.26 303.712C418.518 304.366 418.077 305.258 417.935 306.388H426.017ZM431.136 307.634C431.136 306.168 431.436 304.869 432.037 303.739C432.655 302.608 433.486 301.734 434.528 301.115C435.588 300.479 436.762 300.161 438.052 300.161C439.006 300.161 439.942 300.373 440.861 300.797C441.797 301.204 442.539 301.751 443.086 302.44V295.392H446.134V315H443.086V312.801C442.592 313.507 441.903 314.09 441.02 314.55C440.154 315.009 439.156 315.238 438.025 315.238C436.754 315.238 435.588 314.921 434.528 314.285C433.486 313.631 432.655 312.73 432.037 311.582C431.436 310.416 431.136 309.1 431.136 307.634ZM443.086 307.687C443.086 306.68 442.875 305.805 442.451 305.063C442.044 304.322 441.505 303.756 440.834 303.368C440.163 302.979 439.439 302.785 438.661 302.785C437.884 302.785 437.16 302.979 436.489 303.368C435.817 303.739 435.27 304.295 434.846 305.037C434.44 305.761 434.236 306.627 434.236 307.634C434.236 308.641 434.44 309.524 434.846 310.283C435.27 311.043 435.817 311.626 436.489 312.032C437.178 312.421 437.902 312.615 438.661 312.615C439.439 312.615 440.163 312.421 440.834 312.032C441.505 311.644 442.044 311.078 442.451 310.336C442.875 309.577 443.086 308.694 443.086 307.687ZM451.638 298.466C451.09 298.466 450.631 298.28 450.26 297.909C449.889 297.538 449.704 297.079 449.704 296.531C449.704 295.984 449.889 295.524 450.26 295.153C450.631 294.782 451.09 294.597 451.638 294.597C452.168 294.597 452.619 294.782 452.989 295.153C453.36 295.524 453.546 295.984 453.546 296.531C453.546 297.079 453.36 297.538 452.989 297.909C452.619 298.28 452.168 298.466 451.638 298.466ZM453.122 300.4V315H450.101V300.4H453.122ZM470.31 300.4V315H467.289V313.278C466.812 313.878 466.185 314.355 465.408 314.709C464.648 315.044 463.836 315.212 462.97 315.212C461.822 315.212 460.789 314.974 459.87 314.497C458.969 314.02 458.254 313.313 457.724 312.377C457.212 311.441 456.955 310.31 456.955 308.985V300.4H459.95V308.535C459.95 309.842 460.276 310.849 460.93 311.555C461.584 312.244 462.476 312.589 463.606 312.589C464.737 312.589 465.629 312.244 466.282 311.555C466.954 310.849 467.289 309.842 467.289 308.535V300.4H470.31ZM491.969 300.161C493.118 300.161 494.142 300.4 495.043 300.877C495.962 301.354 496.677 302.06 497.189 302.997C497.719 303.933 497.984 305.063 497.984 306.388V315H494.99V306.839C494.99 305.532 494.663 304.534 494.01 303.845C493.356 303.138 492.464 302.785 491.333 302.785C490.203 302.785 489.302 303.138 488.631 303.845C487.977 304.534 487.65 305.532 487.65 306.839V315H484.656V306.839C484.656 305.532 484.329 304.534 483.676 303.845C483.022 303.138 482.13 302.785 481 302.785C479.869 302.785 478.968 303.138 478.297 303.845C477.643 304.534 477.316 305.532 477.316 306.839V315H474.296V300.4H477.316V302.069C477.811 301.469 478.438 301.001 479.198 300.665C479.957 300.329 480.77 300.161 481.635 300.161C482.801 300.161 483.844 300.409 484.762 300.903C485.681 301.398 486.387 302.113 486.882 303.05C487.324 302.166 488.012 301.469 488.949 300.956C489.885 300.426 490.892 300.161 491.969 300.161Z" fill="black" fill-opacity="0.8"/>
<path d="M146.765 419L142.366 411.448H139.452V419H137.04V400.531H143.002C144.398 400.531 145.572 400.77 146.526 401.247C147.498 401.724 148.222 402.368 148.699 403.181C149.176 403.994 149.415 404.921 149.415 405.963C149.415 407.235 149.044 408.357 148.302 409.328C147.577 410.3 146.482 410.945 145.016 411.263L149.653 419H146.765ZM139.452 409.514H143.002C144.309 409.514 145.29 409.196 145.943 408.56C146.597 407.906 146.924 407.041 146.924 405.963C146.924 404.868 146.597 404.02 145.943 403.42C145.307 402.819 144.327 402.519 143.002 402.519H139.452V409.514ZM166.41 411.183C166.41 411.643 166.383 412.128 166.33 412.641H154.725C154.813 414.071 155.299 415.193 156.182 416.006C157.083 416.801 158.169 417.198 159.441 417.198C160.483 417.198 161.349 416.96 162.038 416.483C162.744 415.988 163.239 415.335 163.522 414.522H166.119C165.73 415.917 164.953 417.057 163.787 417.94C162.621 418.806 161.172 419.238 159.441 419.238C158.063 419.238 156.827 418.929 155.732 418.311C154.654 417.693 153.806 416.818 153.188 415.688C152.569 414.54 152.26 413.215 152.26 411.713C152.26 410.212 152.561 408.896 153.161 407.765C153.762 406.635 154.601 405.769 155.679 405.168C156.774 404.55 158.028 404.241 159.441 404.241C160.819 404.241 162.038 404.541 163.098 405.142C164.158 405.742 164.97 406.573 165.536 407.633C166.118 408.675 166.41 409.858 166.41 411.183ZM163.919 410.68C163.919 409.761 163.716 408.975 163.31 408.322C162.903 407.65 162.347 407.147 161.64 406.811C160.952 406.458 160.183 406.281 159.335 406.281C158.116 406.281 157.074 406.67 156.208 407.447C155.361 408.224 154.875 409.302 154.751 410.68H163.919ZM175.581 404.241C176.835 404.241 177.931 404.515 178.867 405.062C179.821 405.61 180.527 406.299 180.987 407.129V404.479H183.424V419.318C183.424 420.643 183.142 421.818 182.576 422.842C182.011 423.884 181.199 424.697 180.139 425.28C179.096 425.863 177.878 426.154 176.482 426.154C174.574 426.154 172.984 425.704 171.713 424.803C170.441 423.902 169.69 422.674 169.46 421.12H171.845C172.11 422.003 172.658 422.71 173.488 423.24C174.318 423.787 175.316 424.061 176.482 424.061C177.807 424.061 178.885 423.646 179.715 422.816C180.563 421.985 180.987 420.819 180.987 419.318V416.271C180.51 417.119 179.803 417.825 178.867 418.391C177.931 418.956 176.835 419.238 175.581 419.238C174.292 419.238 173.117 418.921 172.057 418.285C171.015 417.649 170.193 416.757 169.593 415.608C168.992 414.46 168.692 413.153 168.692 411.687C168.692 410.203 168.992 408.904 169.593 407.792C170.193 406.661 171.015 405.787 172.057 405.168C173.117 404.55 174.292 404.241 175.581 404.241ZM180.987 411.713C180.987 410.618 180.766 409.664 180.324 408.851C179.883 408.039 179.282 407.421 178.522 406.997C177.78 406.555 176.959 406.334 176.058 406.334C175.157 406.334 174.336 406.546 173.594 406.97C172.852 407.394 172.26 408.012 171.819 408.825C171.377 409.638 171.156 410.591 171.156 411.687C171.156 412.8 171.377 413.771 171.819 414.601C172.26 415.414 172.852 416.041 173.594 416.483C174.336 416.907 175.157 417.119 176.058 417.119C176.959 417.119 177.78 416.907 178.522 416.483C179.282 416.041 179.883 415.414 180.324 414.601C180.766 413.771 180.987 412.808 180.987 411.713ZM200.377 404.479V419H197.966V416.854C197.506 417.596 196.862 418.179 196.031 418.603C195.219 419.009 194.318 419.212 193.329 419.212C192.198 419.212 191.182 418.982 190.281 418.523C189.381 418.046 188.665 417.339 188.135 416.403C187.623 415.467 187.367 414.328 187.367 412.985V404.479H189.751V412.667C189.751 414.098 190.114 415.202 190.838 415.979C191.562 416.739 192.551 417.119 193.806 417.119C195.095 417.119 196.111 416.721 196.853 415.926C197.595 415.131 197.966 413.974 197.966 412.455V404.479H200.377ZM206.859 399.392V419H204.448V399.392H206.859ZM210.068 411.687C210.068 410.203 210.368 408.904 210.969 407.792C211.57 406.661 212.391 405.787 213.433 405.168C214.493 404.55 215.668 404.241 216.957 404.241C218.229 404.241 219.333 404.515 220.27 405.062C221.206 405.61 221.904 406.299 222.363 407.129V404.479H224.801V419H222.363V416.297C221.886 417.145 221.171 417.852 220.217 418.417C219.28 418.965 218.185 419.238 216.931 419.238C215.641 419.238 214.476 418.921 213.433 418.285C212.391 417.649 211.57 416.757 210.969 415.608C210.368 414.46 210.068 413.153 210.068 411.687ZM222.363 411.713C222.363 410.618 222.142 409.664 221.701 408.851C221.259 408.039 220.658 407.421 219.899 406.997C219.157 406.555 218.335 406.334 217.434 406.334C216.534 406.334 215.712 406.546 214.97 406.97C214.228 407.394 213.636 408.012 213.195 408.825C212.753 409.638 212.532 410.591 212.532 411.687C212.532 412.8 212.753 413.771 213.195 414.601C213.636 415.414 214.228 416.041 214.97 416.483C215.712 416.907 216.534 417.119 217.434 417.119C218.335 417.119 219.157 416.907 219.899 416.483C220.658 416.041 221.259 415.414 221.701 414.601C222.142 413.771 222.363 412.808 222.363 411.713ZM231.287 406.838C231.711 406.007 232.311 405.363 233.089 404.903C233.884 404.444 234.846 404.214 235.977 404.214V406.705H235.341C232.638 406.705 231.287 408.171 231.287 411.104V419H228.876V404.479H231.287V406.838Z" fill="black" fill-opacity="0.6"/>
<path d="M153.14 462.25H141.863L139.785 468H136.224L145.572 442.292H149.468L158.779 468H155.218L153.14 462.25ZM152.176 459.505L147.501 446.447L142.827 459.505H152.176ZM161.592 457.761C161.592 455.684 162.012 453.866 162.853 452.308C163.694 450.725 164.844 449.501 166.303 448.636C167.787 447.77 169.431 447.337 171.237 447.337C173.017 447.337 174.563 447.721 175.874 448.487C177.185 449.254 178.161 450.218 178.804 451.381V447.671H182.217V468H178.804V464.216C178.137 465.403 177.135 466.392 175.8 467.184C174.489 467.951 172.956 468.334 171.2 468.334C169.394 468.334 167.762 467.889 166.303 466.998C164.844 466.108 163.694 464.859 162.853 463.252C162.012 461.644 161.592 459.814 161.592 457.761ZM178.804 457.799C178.804 456.265 178.495 454.93 177.877 453.792C177.259 452.654 176.418 451.789 175.354 451.195C174.316 450.577 173.166 450.268 171.904 450.268C170.643 450.268 169.493 450.565 168.455 451.158C167.416 451.752 166.587 452.617 165.969 453.755C165.351 454.893 165.042 456.228 165.042 457.761C165.042 459.319 165.351 460.68 165.969 461.842C166.587 462.98 167.416 463.858 168.455 464.476C169.493 465.069 170.643 465.366 171.904 465.366C173.166 465.366 174.316 465.069 175.354 464.476C176.418 463.858 177.259 462.98 177.877 461.842C178.495 460.68 178.804 459.332 178.804 457.799ZM200.869 454.682C201.808 454.831 202.662 455.214 203.428 455.832C204.22 456.451 204.838 457.217 205.283 458.132C205.753 459.047 205.988 460.024 205.988 461.063C205.988 462.374 205.654 463.561 204.986 464.624C204.319 465.663 203.342 466.491 202.056 467.11C200.794 467.703 199.298 468 197.567 468H187.922V442.144H197.196C198.952 442.144 200.448 442.441 201.685 443.034C202.921 443.603 203.849 444.382 204.467 445.371C205.085 446.36 205.394 447.473 205.394 448.71C205.394 450.243 204.974 451.517 204.133 452.531C203.317 453.52 202.229 454.237 200.869 454.682ZM191.298 453.31H196.974C198.556 453.31 199.78 452.939 200.646 452.197C201.512 451.455 201.944 450.429 201.944 449.118C201.944 447.807 201.512 446.781 200.646 446.039C199.78 445.297 198.532 444.926 196.899 444.926H191.298V453.31ZM197.27 465.218C198.952 465.218 200.263 464.822 201.202 464.031C202.142 463.239 202.612 462.139 202.612 460.729C202.612 459.295 202.118 458.169 201.128 457.353C200.139 456.512 198.816 456.092 197.159 456.092H191.298V465.218H197.27ZM214.048 451.455C214.741 450.243 215.755 449.254 217.09 448.487C218.426 447.721 219.947 447.337 221.653 447.337C223.483 447.337 225.128 447.77 226.587 448.636C228.046 449.501 229.196 450.725 230.037 452.308C230.878 453.866 231.298 455.684 231.298 457.761C231.298 459.814 230.878 461.644 230.037 463.252C229.196 464.859 228.034 466.108 226.55 466.998C225.091 467.889 223.458 468.334 221.653 468.334C219.897 468.334 218.351 467.951 217.016 467.184C215.705 466.417 214.716 465.44 214.048 464.253V468H210.673V440.549H214.048V451.455ZM227.848 457.761C227.848 456.228 227.539 454.893 226.921 453.755C226.302 452.617 225.462 451.752 224.398 451.158C223.359 450.565 222.209 450.268 220.948 450.268C219.712 450.268 218.562 450.577 217.498 451.195C216.46 451.789 215.619 452.667 214.976 453.829C214.357 454.967 214.048 456.29 214.048 457.799C214.048 459.332 214.357 460.68 214.976 461.842C215.619 462.98 216.46 463.858 217.498 464.476C218.562 465.069 219.712 465.366 220.948 465.366C222.209 465.366 223.359 465.069 224.398 464.476C225.462 463.858 226.302 462.98 226.921 461.842C227.539 460.68 227.848 459.319 227.848 457.761ZM234.48 455.053C234.48 452.531 235.049 450.268 236.187 448.265C237.324 446.237 238.87 444.654 240.824 443.516C242.802 442.379 244.991 441.81 247.39 441.81C250.209 441.81 252.67 442.49 254.772 443.85C256.874 445.21 258.407 447.139 259.372 449.637H255.328C254.611 448.079 253.573 446.88 252.212 446.039C250.877 445.198 249.269 444.778 247.39 444.778C245.584 444.778 243.965 445.198 242.53 446.039C241.096 446.88 239.971 448.079 239.154 449.637C238.338 451.171 237.93 452.976 237.93 455.053C237.93 457.106 238.338 458.911 239.154 460.469C239.971 462.003 241.096 463.19 242.53 464.031C243.965 464.872 245.584 465.292 247.39 465.292C249.269 465.292 250.877 464.884 252.212 464.068C253.573 463.227 254.611 462.027 255.328 460.469H259.372C258.407 462.943 256.874 464.859 254.772 466.219C252.67 467.555 250.209 468.223 247.39 468.223C244.991 468.223 242.802 467.666 240.824 466.553C238.87 465.416 237.324 463.845 236.187 461.842C235.049 459.839 234.48 457.576 234.48 455.053ZM263.136 457.799C263.136 455.696 263.556 453.866 264.397 452.308C265.238 450.725 266.4 449.501 267.884 448.636C269.393 447.77 271.111 447.337 273.04 447.337C275.538 447.337 277.591 447.943 279.198 449.155C280.831 450.367 281.906 452.049 282.426 454.2H278.79C278.444 452.964 277.764 451.987 276.75 451.27C275.761 450.552 274.524 450.194 273.04 450.194C271.111 450.194 269.553 450.861 268.366 452.197C267.179 453.508 266.586 455.375 266.586 457.799C266.586 460.247 267.179 462.139 268.366 463.474C269.553 464.81 271.111 465.477 273.04 465.477C274.524 465.477 275.761 465.131 276.75 464.439C277.739 463.746 278.419 462.757 278.79 461.471H282.426C281.882 463.548 280.794 465.218 279.161 466.479C277.529 467.716 275.489 468.334 273.04 468.334C271.111 468.334 269.393 467.901 267.884 467.035C266.4 466.17 265.238 464.946 264.397 463.363C263.556 461.78 263.136 459.925 263.136 457.799ZM294.98 442.144C297.799 442.144 300.235 442.676 302.288 443.739C304.365 444.778 305.948 446.274 307.036 448.228C308.149 450.181 308.706 452.481 308.706 455.128C308.706 457.774 308.149 460.074 307.036 462.027C305.948 463.956 304.365 465.44 302.288 466.479C300.235 467.493 297.799 468 294.98 468H286.93V442.144H294.98ZM294.98 465.218C298.319 465.218 300.866 464.34 302.622 462.584C304.378 460.803 305.256 458.318 305.256 455.128C305.256 451.913 304.365 449.402 302.585 447.597C300.829 445.792 298.294 444.889 294.98 444.889H290.306V465.218H294.98ZM311.897 457.761C311.897 455.684 312.318 453.866 313.158 452.308C313.999 450.725 315.149 449.501 316.608 448.636C318.092 447.77 319.749 447.337 321.579 447.337C323.162 447.337 324.634 447.708 325.994 448.45C327.354 449.167 328.393 450.12 329.11 451.307V440.549H332.523V468H329.11V464.179C328.442 465.391 327.453 466.392 326.142 467.184C324.831 467.951 323.298 468.334 321.542 468.334C319.737 468.334 318.092 467.889 316.608 466.998C315.149 466.108 313.999 464.859 313.158 463.252C312.318 461.644 311.897 459.814 311.897 457.761ZM329.11 457.799C329.11 456.265 328.801 454.93 328.182 453.792C327.564 452.654 326.723 451.789 325.66 451.195C324.621 450.577 323.471 450.268 322.21 450.268C320.949 450.268 319.799 450.565 318.76 451.158C317.721 451.752 316.893 452.617 316.275 453.755C315.656 454.893 315.347 456.228 315.347 457.761C315.347 459.319 315.656 460.68 316.275 461.842C316.893 462.98 317.721 463.858 318.76 464.476C319.799 465.069 320.949 465.366 322.21 465.366C323.471 465.366 324.621 465.069 325.66 464.476C326.723 463.858 327.564 462.98 328.182 461.842C328.801 460.68 329.11 459.332 329.11 457.799Z" fill="black" fill-opacity="0.6"/>
<path d="M393.975 417.49H400.625V419H392.12V400.478H393.975V417.49ZM404.2 401.803C403.829 401.803 403.511 401.671 403.246 401.406C402.981 401.141 402.849 400.814 402.849 400.425C402.849 400.037 402.981 399.719 403.246 399.471C403.511 399.206 403.829 399.074 404.2 399.074C404.571 399.074 404.889 399.206 405.154 399.471C405.419 399.719 405.551 400.037 405.551 400.425C405.551 400.814 405.419 401.141 405.154 401.406C404.889 401.671 404.571 401.803 404.2 401.803ZM405.127 404.532V419H403.273V404.532H405.127ZM415.395 404.32C416.756 404.32 417.939 404.638 418.946 405.274C419.953 405.91 420.677 406.714 421.119 407.686V404.532H422.974V419.371C422.974 420.696 422.682 421.871 422.099 422.895C421.534 423.92 420.739 424.706 419.715 425.253C418.69 425.819 417.524 426.101 416.217 426.101C414.362 426.101 412.816 425.66 411.58 424.776C410.361 423.893 409.601 422.692 409.301 421.173H411.129C411.447 422.18 412.048 422.983 412.931 423.584C413.832 424.185 414.927 424.485 416.217 424.485C417.153 424.485 417.992 424.282 418.734 423.876C419.476 423.487 420.059 422.904 420.483 422.127C420.907 421.349 421.119 420.431 421.119 419.371V415.794C420.66 416.783 419.927 417.604 418.92 418.258C417.93 418.894 416.756 419.212 415.395 419.212C414.071 419.212 412.878 418.903 411.818 418.285C410.776 417.666 409.955 416.792 409.354 415.661C408.771 414.531 408.48 413.224 408.48 411.74C408.48 410.256 408.771 408.957 409.354 407.845C409.955 406.714 410.776 405.848 411.818 405.248C412.878 404.63 414.071 404.32 415.395 404.32ZM421.119 411.766C421.119 410.6 420.88 409.576 420.403 408.693C419.927 407.809 419.273 407.129 418.443 406.652C417.63 406.175 416.729 405.937 415.74 405.937C414.715 405.937 413.797 406.166 412.984 406.626C412.172 407.085 411.527 407.756 411.05 408.64C410.591 409.505 410.361 410.538 410.361 411.74C410.361 412.923 410.591 413.965 411.05 414.866C411.527 415.75 412.172 416.43 412.984 416.907C413.797 417.366 414.715 417.596 415.74 417.596C416.729 417.596 417.63 417.357 418.443 416.88C419.273 416.403 419.927 415.723 420.403 414.84C420.88 413.957 421.119 412.932 421.119 411.766ZM434.097 404.267C435.193 404.267 436.173 404.497 437.039 404.956C437.922 405.416 438.611 406.122 439.105 407.076C439.618 408.012 439.874 409.161 439.874 410.521V419H438.046V410.733C438.046 409.161 437.648 407.959 436.853 407.129C436.076 406.299 435.007 405.884 433.647 405.884C432.251 405.884 431.139 406.325 430.308 407.209C429.478 408.092 429.063 409.39 429.063 411.104V419H427.208V399.392H429.063V406.997C429.522 406.131 430.194 405.46 431.077 404.983C431.978 404.506 432.985 404.267 434.097 404.267ZM446.387 406.096V415.078C446.387 415.962 446.555 416.571 446.891 416.907C447.226 417.242 447.818 417.41 448.666 417.41H450.362V419H448.375C447.067 419 446.096 418.7 445.46 418.099C444.824 417.481 444.506 416.474 444.506 415.078V406.096H442.492V404.532H444.506V400.902H446.387V404.532H450.362V406.096H446.387Z" fill="black" fill-opacity="0.4"/>
<path d="M407.992 461.842H396.195L393.932 468H391.187L400.647 442.404H403.577L413 468H410.255L407.992 461.842ZM407.213 459.69L402.093 445.668L396.974 459.69H407.213ZM415.98 457.836C415.98 455.758 416.388 453.94 417.204 452.382C418.045 450.8 419.195 449.588 420.654 448.747C422.138 447.881 423.808 447.449 425.662 447.449C427.591 447.449 429.248 447.894 430.633 448.784C432.043 449.674 433.057 450.812 433.675 452.197V447.745H436.272V468H433.675V463.511C433.032 464.896 432.006 466.046 430.596 466.961C429.211 467.852 427.554 468.297 425.625 468.297C423.795 468.297 422.138 467.864 420.654 466.998C419.195 466.133 418.045 464.909 417.204 463.326C416.388 461.743 415.98 459.913 415.98 457.836ZM433.675 457.873C433.675 456.24 433.341 454.806 432.674 453.57C432.006 452.333 431.091 451.381 429.928 450.713C428.791 450.045 427.53 449.711 426.145 449.711C424.71 449.711 423.424 450.033 422.287 450.676C421.149 451.319 420.246 452.259 419.579 453.495C418.936 454.707 418.614 456.154 418.614 457.836C418.614 459.493 418.936 460.952 419.579 462.213C420.246 463.45 421.149 464.402 422.287 465.069C423.424 465.712 424.71 466.034 426.145 466.034C427.53 466.034 428.791 465.7 429.928 465.032C431.091 464.365 432.006 463.412 432.674 462.176C433.341 460.939 433.675 459.505 433.675 457.873ZM454.331 454.608C455.79 454.88 457.026 455.622 458.04 456.834C459.054 458.046 459.561 459.455 459.561 461.063C459.561 462.374 459.227 463.561 458.56 464.624C457.917 465.663 456.964 466.491 455.703 467.11C454.442 467.703 452.933 468 451.177 468H442.2V442.07H450.918C453.539 442.07 455.53 442.676 456.89 443.887C458.275 445.099 458.968 446.67 458.968 448.599C458.968 450.206 458.535 451.517 457.669 452.531C456.804 453.52 455.691 454.213 454.331 454.608ZM444.797 453.532H450.844C452.599 453.532 453.947 453.124 454.887 452.308C455.852 451.467 456.334 450.317 456.334 448.858C456.334 447.424 455.852 446.299 454.887 445.483C453.947 444.666 452.562 444.258 450.732 444.258H444.797V453.532ZM450.992 465.811C452.871 465.811 454.331 465.366 455.369 464.476C456.433 463.586 456.964 462.361 456.964 460.803C456.964 459.245 456.408 458.009 455.295 457.094C454.207 456.154 452.735 455.684 450.881 455.684H444.797V465.811H450.992ZM466.894 452.234C467.562 450.824 468.588 449.674 469.973 448.784C471.383 447.894 473.04 447.449 474.944 447.449C476.799 447.449 478.456 447.881 479.915 448.747C481.374 449.588 482.512 450.8 483.328 452.382C484.169 453.94 484.589 455.758 484.589 457.836C484.589 459.913 484.169 461.743 483.328 463.326C482.512 464.909 481.362 466.133 479.878 466.998C478.419 467.864 476.774 468.297 474.944 468.297C473.015 468.297 471.346 467.864 469.936 466.998C468.551 466.108 467.537 464.958 466.894 463.548V468H464.335V440.549H466.894V452.234ZM481.955 457.836C481.955 456.154 481.622 454.707 480.954 453.495C480.311 452.259 479.421 451.319 478.283 450.676C477.145 450.033 475.859 449.711 474.425 449.711C473.04 449.711 471.766 450.045 470.604 450.713C469.466 451.381 468.564 452.333 467.896 453.57C467.228 454.806 466.894 456.24 466.894 457.873C466.894 459.505 467.228 460.939 467.896 462.176C468.564 463.412 469.466 464.365 470.604 465.032C471.766 465.7 473.04 466.034 474.425 466.034C475.859 466.034 477.145 465.712 478.283 465.069C479.421 464.402 480.311 463.45 480.954 462.213C481.622 460.952 481.955 459.493 481.955 457.836ZM488.18 455.016C488.18 452.469 488.737 450.194 489.85 448.191C490.963 446.163 492.484 444.592 494.413 443.479C496.342 442.342 498.493 441.773 500.867 441.773C503.761 441.773 506.234 442.465 508.287 443.85C510.364 445.21 511.873 447.139 512.812 449.637H509.77C509.029 447.881 507.891 446.509 506.358 445.52C504.849 444.53 503.019 444.036 500.867 444.036C498.963 444.036 497.244 444.481 495.711 445.371C494.202 446.262 493.015 447.548 492.15 449.229C491.284 450.886 490.851 452.815 490.851 455.016C490.851 457.217 491.284 459.146 492.15 460.803C493.015 462.46 494.202 463.734 495.711 464.624C497.244 465.515 498.963 465.96 500.867 465.96C503.019 465.96 504.849 465.477 506.358 464.513C507.891 463.524 509.029 462.164 509.77 460.432H512.812C511.873 462.905 510.364 464.822 508.287 466.182C506.209 467.542 503.736 468.223 500.867 468.223C498.493 468.223 496.342 467.666 494.413 466.553C492.484 465.416 490.963 463.845 489.85 461.842C488.737 459.839 488.18 457.564 488.18 455.016ZM516.8 457.873C516.8 455.771 517.22 453.94 518.061 452.382C518.902 450.8 520.064 449.588 521.548 448.747C523.032 447.881 524.726 447.449 526.63 447.449C529.128 447.449 531.181 448.067 532.788 449.303C534.42 450.54 535.472 452.222 535.941 454.349H533.159C532.813 452.889 532.059 451.752 530.896 450.936C529.759 450.095 528.337 449.674 526.63 449.674C525.27 449.674 524.046 449.984 522.958 450.602C521.87 451.22 521.004 452.147 520.361 453.384C519.743 454.596 519.434 456.092 519.434 457.873C519.434 459.653 519.743 461.162 520.361 462.398C521.004 463.635 521.87 464.562 522.958 465.181C524.046 465.799 525.27 466.108 526.63 466.108C528.337 466.108 529.759 465.7 530.896 464.884C532.059 464.043 532.813 462.881 533.159 461.397H535.941C535.472 463.474 534.42 465.144 532.788 466.405C531.156 467.666 529.103 468.297 526.63 468.297C524.726 468.297 523.032 467.876 521.548 467.035C520.064 466.17 518.902 464.958 518.061 463.4C517.22 461.817 516.8 459.975 516.8 457.873ZM548.416 442.07C551.285 442.07 553.746 442.589 555.798 443.628C557.851 444.666 559.421 446.163 560.51 448.116C561.598 450.07 562.142 452.395 562.142 455.09C562.142 457.761 561.598 460.074 560.51 462.027C559.421 463.956 557.851 465.44 555.798 466.479C553.746 467.493 551.285 468 548.416 468H540.737V442.07H548.416ZM548.416 465.848C552.027 465.848 554.772 464.909 556.652 463.029C558.556 461.125 559.508 458.479 559.508 455.09C559.508 451.678 558.556 449.019 556.652 447.115C554.772 445.186 552.027 444.221 548.416 444.221H543.334V465.848H548.416ZM565.742 457.836C565.742 455.758 566.163 453.94 567.004 452.382C567.844 450.8 568.994 449.588 570.453 448.747C571.937 447.881 573.607 447.449 575.461 447.449C577.242 447.449 578.85 447.881 580.284 448.747C581.718 449.613 582.769 450.738 583.437 452.123V440.549H586.034V468H583.437V463.474C582.819 464.884 581.805 466.046 580.395 466.961C578.986 467.852 577.329 468.297 575.424 468.297C573.57 468.297 571.9 467.864 570.416 466.998C568.957 466.133 567.807 464.909 566.966 463.326C566.15 461.743 565.742 459.913 565.742 457.836ZM583.437 457.873C583.437 456.24 583.103 454.806 582.436 453.57C581.768 452.333 580.853 451.381 579.69 450.713C578.553 450.045 577.292 449.711 575.907 449.711C574.472 449.711 573.186 450.033 572.049 450.676C570.911 451.319 570.008 452.259 569.341 453.495C568.698 454.707 568.376 456.154 568.376 457.836C568.376 459.493 568.698 460.952 569.341 462.213C570.008 463.45 570.911 464.402 572.049 465.069C573.186 465.712 574.472 466.034 575.907 466.034C577.292 466.034 578.553 465.7 579.69 465.032C580.853 464.365 581.768 463.412 582.436 462.176C583.103 460.939 583.437 459.505 583.437 457.873Z" fill="black" fill-opacity="0.4"/>
<path d="M408.326 357.732H397.531L395.676 363H391.261L400.498 337.181H405.395L414.632 363H410.18L408.326 357.732ZM407.139 354.282L402.947 342.3L398.718 354.282H407.139ZM417.239 352.687C417.239 350.635 417.659 348.817 418.5 347.234C419.365 345.651 420.528 344.427 421.987 343.562C423.471 342.671 425.103 342.226 426.884 342.226C428.491 342.226 429.888 342.548 431.076 343.191C432.287 343.809 433.252 344.588 433.969 345.528V342.56H438.235V363H433.969V359.958C433.252 360.923 432.275 361.726 431.038 362.369C429.802 363.012 428.392 363.334 426.809 363.334C425.054 363.334 423.446 362.889 421.987 361.998C420.528 361.083 419.365 359.822 418.5 358.215C417.659 356.582 417.239 354.74 417.239 352.687ZM433.969 352.761C433.969 351.352 433.672 350.128 433.079 349.089C432.51 348.05 431.756 347.259 430.816 346.715C429.876 346.171 428.862 345.899 427.774 345.899C426.686 345.899 425.672 346.171 424.732 346.715C423.792 347.234 423.026 348.013 422.432 349.052C421.863 350.066 421.579 351.278 421.579 352.687C421.579 354.097 421.863 355.333 422.432 356.397C423.026 357.46 423.792 358.276 424.732 358.845C425.697 359.389 426.711 359.661 427.774 359.661C428.862 359.661 429.876 359.389 430.816 358.845C431.756 358.301 432.51 357.51 433.079 356.471C433.672 355.408 433.969 354.171 433.969 352.761ZM457.59 349.757C458.974 350.004 460.149 350.733 461.114 351.945C462.078 353.157 462.56 354.53 462.56 356.063C462.56 357.374 462.214 358.561 461.522 359.624C460.854 360.663 459.877 361.491 458.591 362.11C457.305 362.703 455.809 363 454.102 363H443.79V337.218H453.62C455.376 337.218 456.885 337.515 458.146 338.108C459.407 338.702 460.359 339.506 461.002 340.52C461.645 341.509 461.967 342.622 461.967 343.858C461.967 345.342 461.571 346.579 460.78 347.568C459.988 348.557 458.925 349.287 457.59 349.757ZM448.019 348.05H453.249C454.634 348.05 455.71 347.741 456.477 347.123C457.268 346.48 457.664 345.565 457.664 344.378C457.664 343.215 457.268 342.313 456.477 341.67C455.71 341.002 454.634 340.668 453.249 340.668H448.019V348.05ZM453.732 359.55C455.166 359.55 456.291 359.204 457.107 358.511C457.923 357.819 458.331 356.854 458.331 355.618C458.331 354.357 457.899 353.355 457.033 352.613C456.168 351.871 455.018 351.5 453.583 351.5H448.019V359.55H453.732ZM471.385 345.602C472.102 344.613 473.079 343.809 474.316 343.191C475.577 342.548 476.974 342.226 478.508 342.226C480.313 342.226 481.945 342.659 483.404 343.524C484.863 344.39 486.013 345.627 486.854 347.234C487.695 348.817 488.116 350.635 488.116 352.687C488.116 354.74 487.695 356.582 486.854 358.215C486.013 359.822 484.851 361.083 483.367 361.998C481.908 362.889 480.288 363.334 478.508 363.334C476.925 363.334 475.515 363.025 474.279 362.406C473.067 361.788 472.102 360.997 471.385 360.032V363H467.156V335.549H471.385V345.602ZM483.812 352.687C483.812 351.278 483.516 350.066 482.922 349.052C482.353 348.013 481.587 347.234 480.622 346.715C479.682 346.171 478.668 345.899 477.58 345.899C476.517 345.899 475.503 346.171 474.538 346.715C473.598 347.259 472.832 348.05 472.238 349.089C471.669 350.128 471.385 351.352 471.385 352.761C471.385 354.171 471.669 355.408 472.238 356.471C472.832 357.51 473.598 358.301 474.538 358.845C475.503 359.389 476.517 359.661 477.58 359.661C478.668 359.661 479.682 359.389 480.622 358.845C481.587 358.276 482.353 357.46 482.922 356.397C483.516 355.333 483.812 354.097 483.812 352.687ZM490.888 350.053C490.888 347.531 491.469 345.268 492.631 343.265C493.818 341.262 495.414 339.703 497.417 338.591C499.445 337.453 501.658 336.884 504.057 336.884C506.802 336.884 509.238 337.564 511.365 338.924C513.517 340.26 515.075 342.164 516.039 344.637H510.957C510.289 343.277 509.362 342.263 508.175 341.595C506.988 340.928 505.615 340.594 504.057 340.594C502.351 340.594 500.83 340.977 499.494 341.744C498.159 342.51 497.108 343.611 496.341 345.045C495.599 346.48 495.228 348.149 495.228 350.053C495.228 351.958 495.599 353.627 496.341 355.061C497.108 356.496 498.159 357.609 499.494 358.4C500.83 359.167 502.351 359.55 504.057 359.55C505.615 359.55 506.988 359.216 508.175 358.548C509.362 357.881 510.289 356.867 510.957 355.507H516.039C515.075 357.98 513.517 359.884 511.365 361.219C509.238 362.555 506.802 363.223 504.057 363.223C501.633 363.223 499.42 362.666 497.417 361.553C495.414 360.416 493.818 358.845 492.631 356.842C491.469 354.839 490.888 352.576 490.888 350.053ZM519.58 352.761C519.58 350.659 520 348.817 520.841 347.234C521.706 345.627 522.894 344.39 524.402 343.524C525.911 342.659 527.642 342.226 529.596 342.226C532.069 342.226 534.109 342.82 535.716 344.007C537.349 345.169 538.449 346.838 539.018 349.015H534.455C534.084 348.001 533.491 347.209 532.675 346.641C531.858 346.072 530.832 345.787 529.596 345.787C527.864 345.787 526.48 346.406 525.441 347.642C524.427 348.854 523.92 350.56 523.92 352.761C523.92 354.962 524.427 356.681 525.441 357.918C526.48 359.154 527.864 359.773 529.596 359.773C532.044 359.773 533.664 358.697 534.455 356.545H539.018C538.425 358.623 537.312 360.28 535.679 361.516C534.047 362.728 532.019 363.334 529.596 363.334C527.642 363.334 525.911 362.901 524.402 362.035C522.894 361.145 521.706 359.909 520.841 358.326C520 356.718 519.58 354.864 519.58 352.761ZM551.653 337.218C554.399 337.218 556.797 337.75 558.85 338.813C560.928 339.852 562.523 341.36 563.636 343.339C564.773 345.293 565.342 347.58 565.342 350.202C565.342 352.823 564.773 355.098 563.636 357.027C562.523 358.956 560.928 360.44 558.85 361.479C556.797 362.493 554.399 363 551.653 363H543.233V337.218H551.653ZM551.653 359.55C554.671 359.55 556.983 358.734 558.59 357.102C560.198 355.469 561.002 353.169 561.002 350.202C561.002 347.209 560.198 344.872 558.59 343.191C556.983 341.509 554.671 340.668 551.653 340.668H547.462V359.55H551.653ZM568.124 352.687C568.124 350.635 568.544 348.817 569.385 347.234C570.25 345.651 571.413 344.427 572.872 343.562C574.356 342.671 576 342.226 577.806 342.226C579.141 342.226 580.452 342.523 581.738 343.116C583.049 343.685 584.087 344.452 584.854 345.416V335.549H589.12V363H584.854V359.921C584.162 360.91 583.197 361.726 581.961 362.369C580.749 363.012 579.351 363.334 577.769 363.334C575.988 363.334 574.356 362.889 572.872 361.998C571.413 361.083 570.25 359.822 569.385 358.215C568.544 356.582 568.124 354.74 568.124 352.687ZM584.854 352.761C584.854 351.352 584.557 350.128 583.964 349.089C583.395 348.05 582.641 347.259 581.701 346.715C580.761 346.171 579.747 345.899 578.659 345.899C577.571 345.899 576.557 346.171 575.617 346.715C574.677 347.234 573.911 348.013 573.317 349.052C572.748 350.066 572.464 351.278 572.464 352.687C572.464 354.097 572.748 355.333 573.317 356.397C573.911 357.46 574.677 358.276 575.617 358.845C576.582 359.389 577.596 359.661 578.659 359.661C579.747 359.661 580.761 359.389 581.701 358.845C582.641 358.301 583.395 357.51 583.964 356.471C584.557 355.408 584.854 354.171 584.854 352.761Z" fill="black" fill-opacity="0.8"/>
</svg>
